%FSLAX35Y35*%
%MOIN*%
%TF.FileFunction,Copper,L2,Bot*%
%ADD10C,0.00591*%
%ADD11C,0.00001*%
%ADD12C,0.00650*%
%ADD13C,0.01024*%
%ADD14C,0.01181*%
%ADD15C,0.03937*%
%AMR_16*21,1,0.01575,0.01575,0,0,0.000*%
%ADD16R_16*%
%AMR_17*21,1,0.03937,0.03937,0,0,0.000*%
%ADD17R_17*%
%AMOCT_18*4,1,8,0.039370,0.019685,0.019685,0.039370,-0.019685,0.039370,-0.039370,0.019685,-0.039370,-0.019685,-0.019685,-0.039370,0.019685,-0.039370,0.039370,-0.019685,0.039370,0.019685,0.000*%
%ADD18OCT_18*%
%AMOCT_19*4,1,8,0.039370,0.019685,0.019685,0.039370,-0.019685,0.039370,-0.039370,0.019685,-0.039370,-0.019685,-0.019685,-0.039370,0.019685,-0.039370,0.039370,-0.019685,0.039370,0.019685,180.000*%
%ADD19OCT_19*%
%AMRR_20*21,1,0.07874,0.06299,0,0,0.000*21,1,0.06299,0.07874,0,0,0.000*1,1,0.01575,0.03150,0.03150*1,1,0.01575,-0.03150,-0.03150*1,1,0.01575,0.03150,-0.03150*1,1,0.01575,-0.03150,0.03150*%
%ADD20RR_20*%
%AMRR_21*21,1,0.07874,0.06299,0,0,180.000*21,1,0.06299,0.07874,0,0,180.000*1,1,0.01575,-0.03150,-0.03150*1,1,0.01575,0.03150,0.03150*1,1,0.01575,-0.03150,0.03150*1,1,0.01575,0.03150,-0.03150*%
%ADD21RR_21*%
G54D12*
X3937Y225374D02*
X3937Y230098D01*
X3937Y227736D02*
X8267Y227736D01*
X8267Y230098D02*
X8267Y225374D01*
X3937Y230098D02*
X6102Y232460D01*
X8267Y230098D01*
X9566Y232460D02*
X9566Y225374D01*
X9566Y227736D02*
X12814Y231279D01*
X11190Y229507D02*
X13897Y225374D01*
X15196Y232460D02*
X15196Y226555D01*
X16279Y225374D01*
X19527Y225374D01*
X15196Y229507D02*
X17362Y229507D01*
X20826Y229507D02*
X20826Y226555D01*
X21909Y225374D01*
X24074Y225374D01*
X25157Y226555D01*
X25157Y229507D02*
X25157Y225374D01*
X30787Y225964D02*
X29704Y225374D01*
X27539Y225374D01*
X26456Y226555D01*
X26456Y228326D01*
X27539Y229507D01*
X29704Y229507D01*
X30787Y228917D01*
X30787Y228326D01*
X29704Y227736D01*
X26456Y227736D01*
X32086Y225374D02*
X36417Y225374D01*
X33169Y232460D02*
X34251Y232460D01*
X34251Y225374D01*
X37716Y225374D02*
X42047Y225374D01*
X38799Y232460D02*
X39881Y232460D01*
X39881Y225374D01*
X47677Y225964D02*
X46594Y225374D01*
X44429Y225374D01*
X43346Y226555D01*
X43346Y228326D01*
X44429Y229507D01*
X46594Y229507D01*
X47677Y228917D01*
X47677Y228326D01*
X46594Y227736D01*
X43346Y227736D01*
X48976Y225374D02*
X52765Y225374D01*
X53307Y226555D01*
X52765Y227736D01*
X49517Y227736D01*
X48976Y228917D01*
X49517Y229507D01*
X53307Y229507D01*
X60236Y232460D02*
X60236Y225374D01*
X60236Y228917D02*
X62942Y228917D01*
X64025Y229507D01*
X64566Y230688D01*
X64025Y231870D01*
X62942Y232460D01*
X60236Y232460D01*
X65866Y229507D02*
X65866Y225374D01*
X65866Y227736D02*
X67490Y229507D01*
X70196Y229507D01*
X71496Y228326D02*
X71496Y226555D01*
X71496Y228326D02*
X72578Y229507D01*
X74744Y229507D01*
X75826Y228326D01*
X75826Y226555D01*
X74744Y225374D01*
X72578Y225374D01*
X71496Y226555D01*
X77125Y223011D02*
X80374Y223011D01*
X81456Y224192D01*
X81456Y229507D01*
X79832Y229507D01*
X81456Y232460D02*
X81456Y231870D01*
X87086Y225964D02*
X86003Y225374D01*
X83838Y225374D01*
X82755Y226555D01*
X82755Y228326D01*
X83838Y229507D01*
X86003Y229507D01*
X87086Y228917D01*
X87086Y228326D01*
X86003Y227736D01*
X82755Y227736D01*
X88385Y232460D02*
X88385Y225374D01*
X88385Y227736D02*
X91633Y231279D01*
X90009Y229507D02*
X92716Y225374D01*
X94015Y232460D02*
X94015Y226555D01*
X95098Y225374D01*
X98346Y225374D01*
X94015Y229507D02*
X96181Y229507D01*
X105275Y229507D02*
X107440Y225374D01*
X109606Y229507D01*
X110905Y228326D02*
X110905Y226555D01*
X110905Y228326D02*
X111988Y229507D01*
X114153Y229507D01*
X115236Y228326D01*
X115236Y226555D01*
X114153Y225374D01*
X111988Y225374D01*
X110905Y226555D01*
X116535Y225374D02*
X116535Y229507D01*
X116535Y228326D02*
X117618Y229507D01*
X119783Y229507D01*
X120866Y228326D01*
X120866Y225374D01*
X127795Y232460D02*
X132125Y232460D01*
X129960Y232460D02*
X129960Y225374D01*
X133425Y225374D02*
X133425Y230098D01*
X133425Y227736D02*
X137755Y227736D01*
X137755Y230098D02*
X137755Y225374D01*
X133425Y230098D02*
X135590Y232460D01*
X137755Y230098D01*
X139055Y232460D02*
X139055Y225374D01*
X139055Y228917D02*
X141761Y228917D01*
X142844Y229507D01*
X143385Y230688D01*
X142844Y231870D01*
X141761Y232460D01*
X139055Y232460D01*
X141220Y228917D02*
X143385Y225374D01*
X146309Y232460D02*
X145226Y231870D01*
X144685Y230688D01*
X144685Y227145D01*
X145226Y225964D01*
X146309Y225374D01*
X147391Y225374D01*
X148474Y225964D01*
X149015Y227145D01*
X149015Y228917D01*
X147933Y228917D01*
X146309Y232460D02*
X147391Y232460D01*
X148474Y231870D01*
X150314Y232460D02*
X150314Y225374D01*
X154645Y225374D01*
X150314Y228917D02*
X152480Y228917D01*
X150314Y232460D02*
X154645Y232460D01*
X155944Y232460D02*
X160275Y232460D01*
X158110Y232460D02*
X158110Y225374D01*
X167204Y225374D02*
X167204Y232460D01*
X171535Y225374D01*
X171535Y232460D01*
X175541Y225374D02*
X176624Y225964D01*
X177165Y227145D01*
X175541Y225374D02*
X174458Y225374D01*
X173375Y225964D01*
X172834Y227145D01*
X172834Y230688D01*
X173375Y231870D01*
X174458Y232460D01*
X175541Y232460D01*
X176624Y231870D01*
X177165Y230688D01*
X178464Y228917D02*
X182795Y228917D01*
X184094Y232460D02*
X184094Y225374D01*
X188425Y225374D01*
X184094Y228917D02*
X186259Y228917D01*
X184094Y232460D02*
X188425Y232460D01*
X194055Y232460D02*
X194055Y225374D01*
X190807Y225374D01*
X189724Y226555D01*
X189724Y228326D01*
X190807Y229507D01*
X194055Y229507D01*
X195354Y225374D02*
X199685Y225374D01*
X197519Y225374D02*
X197519Y229507D01*
X197519Y232460D02*
X197519Y231870D01*
X195895Y229507D02*
X197519Y229507D01*
X200984Y232460D02*
X200984Y226555D01*
X202066Y225374D01*
X205314Y225374D01*
X200984Y229507D02*
X203149Y229507D01*
X206614Y225374D02*
X210944Y225374D01*
X208779Y225374D02*
X208779Y229507D01*
X208779Y232460D02*
X208779Y231870D01*
X207155Y229507D02*
X208779Y229507D01*
X212244Y228326D02*
X212244Y226555D01*
X212244Y228326D02*
X213326Y229507D01*
X215492Y229507D01*
X216574Y228326D01*
X216574Y226555D01*
X215492Y225374D01*
X213326Y225374D01*
X212244Y226555D01*
X217874Y225374D02*
X217874Y229507D01*
X217874Y228326D02*
X218956Y229507D01*
X221122Y229507D01*
X222204Y228326D01*
X222204Y225374D01*
X224586Y225964D02*
X224586Y225374D01*
X225127Y225374D01*
X225127Y225964D01*
X224586Y225964D01*
X225127Y228917D02*
X224586Y228917D01*
X224586Y228326D01*
X225127Y228326D01*
X225127Y228917D01*
X234763Y232460D02*
X234763Y225374D01*
X234763Y227736D02*
X239094Y232460D01*
X236387Y229507D02*
X239094Y225374D01*
X240393Y228326D02*
X240393Y226555D01*
X240393Y228326D02*
X241476Y229507D01*
X243641Y229507D01*
X244724Y228326D01*
X244724Y226555D01*
X243641Y225374D01*
X241476Y225374D01*
X240393Y226555D01*
X250354Y225374D02*
X250354Y228326D01*
X249271Y229507D01*
X248188Y225374D02*
X248188Y228326D01*
X246023Y229507D02*
X249271Y229507D01*
X246023Y225374D02*
X246023Y229507D01*
X248188Y228326D02*
X247106Y229507D01*
X255984Y225374D02*
X255984Y228326D01*
X254901Y229507D01*
X253818Y225374D02*
X253818Y228326D01*
X251653Y229507D02*
X254901Y229507D01*
X251653Y225374D02*
X251653Y229507D01*
X253818Y228326D02*
X252736Y229507D01*
X261614Y225964D02*
X260531Y225374D01*
X258366Y225374D01*
X257283Y226555D01*
X257283Y228326D01*
X258366Y229507D01*
X260531Y229507D01*
X261614Y228917D01*
X261614Y228326D01*
X260531Y227736D01*
X257283Y227736D01*
X262913Y229507D02*
X262913Y225374D01*
X262913Y227736D02*
X264537Y229507D01*
X267244Y229507D01*
X268543Y229507D02*
X272874Y229507D01*
X268543Y225374D01*
X272874Y225374D01*
X274173Y225374D02*
X278503Y225374D01*
X276338Y225374D02*
X276338Y229507D01*
X276338Y232460D02*
X276338Y231870D01*
X274714Y229507D02*
X276338Y229507D01*
X284133Y225964D02*
X283051Y225374D01*
X280885Y225374D01*
X279803Y226555D01*
X279803Y228326D01*
X280885Y229507D01*
X283051Y229507D01*
X284133Y228917D01*
X284133Y228326D01*
X283051Y227736D01*
X279803Y227736D01*
X285433Y225374D02*
X289763Y225374D01*
X286515Y232460D02*
X287598Y232460D01*
X287598Y225374D01*
X291062Y225374D02*
X295393Y225374D01*
X292145Y232460D02*
X293228Y232460D01*
X293228Y225374D01*
X301023Y225964D02*
X299940Y225374D01*
X297775Y225374D01*
X296692Y226555D01*
X296692Y228326D01*
X297775Y229507D01*
X299940Y229507D01*
X301023Y228917D01*
X301023Y228326D01*
X299940Y227736D01*
X296692Y227736D01*
X307952Y225374D02*
X307952Y232460D01*
X312283Y225374D01*
X312283Y232460D01*
X313582Y229507D02*
X313582Y226555D01*
X314665Y225374D01*
X316830Y225374D01*
X317913Y226555D01*
X317913Y229507D02*
X317913Y225374D01*
X319212Y232460D02*
X319212Y226555D01*
X320295Y225374D01*
X323543Y225374D01*
X319212Y229507D02*
X321377Y229507D01*
X324842Y229507D02*
X329173Y229507D01*
X324842Y225374D01*
X329173Y225374D01*
X330472Y229507D02*
X330472Y226555D01*
X331555Y225374D01*
X333720Y225374D01*
X334803Y226555D01*
X334803Y229507D02*
X334803Y225374D01*
X336102Y225374D02*
X336102Y229507D01*
X336102Y228326D02*
X337185Y229507D01*
X339350Y229507D01*
X340433Y228326D01*
X340433Y225374D01*
X346062Y226555D02*
X344980Y225374D01*
X342814Y225374D01*
X341732Y226555D01*
X341732Y228326D01*
X342814Y229507D01*
X344980Y229507D01*
X346062Y228326D01*
X346062Y224192D01*
X344980Y223011D01*
X341732Y223011D01*
X352992Y225374D02*
X357322Y225374D01*
X355157Y225374D02*
X355157Y229507D01*
X355157Y232460D02*
X355157Y231870D01*
X353533Y229507D02*
X355157Y229507D01*
X358622Y225374D02*
X362411Y225374D01*
X362952Y226555D01*
X362411Y227736D01*
X359163Y227736D01*
X358622Y228917D01*
X359163Y229507D01*
X362952Y229507D01*
X364251Y232460D02*
X364251Y226555D01*
X365334Y225374D01*
X368582Y225374D01*
X364251Y229507D02*
X366417Y229507D01*
X375511Y225374D02*
X379301Y225374D01*
X379842Y226555D01*
X379301Y227736D01*
X376053Y227736D01*
X375511Y228917D01*
X376053Y229507D01*
X379842Y229507D01*
X381141Y232460D02*
X381141Y226555D01*
X382224Y225374D01*
X385472Y225374D01*
X381141Y229507D02*
X383307Y229507D01*
X386771Y229507D02*
X386771Y225374D01*
X386771Y227736D02*
X388395Y229507D01*
X391102Y229507D01*
X392401Y226555D02*
X393484Y225374D01*
X395649Y225374D01*
X396732Y226555D01*
X392401Y226555D02*
X392401Y228326D01*
X393484Y229507D01*
X395649Y229507D01*
X396732Y228326D01*
X396732Y225374D01*
X398031Y223011D02*
X398031Y231279D01*
X399114Y232460D01*
X402362Y232460D01*
X398031Y227736D02*
X400196Y227736D01*
X403661Y232460D02*
X403661Y225374D01*
X406909Y225374D01*
X407992Y226555D01*
X407992Y228326D01*
X406909Y229507D01*
X403661Y229507D01*
X409291Y226555D02*
X410374Y225374D01*
X412539Y225374D01*
X413622Y226555D01*
X409291Y226555D02*
X409291Y228326D01*
X410374Y229507D01*
X412539Y229507D01*
X413622Y228326D01*
X413622Y225374D01*
X414921Y229507D02*
X414921Y225374D01*
X414921Y227736D02*
X416545Y229507D01*
X419251Y229507D01*
X422716Y225374D02*
X422716Y225964D01*
X423257Y225964D01*
X423257Y225374D01*
X422716Y225374D01*
X422716Y227736D02*
X423257Y227736D01*
X423799Y231279D01*
X423257Y232460D01*
X422716Y232460D01*
X422175Y231279D01*
X422716Y227736D01*
X3937Y225374D02*
X3937Y230098D01*
X3937Y227736D02*
X8267Y227736D01*
X8267Y230098D02*
X8267Y225374D01*
X3937Y230098D02*
X6102Y232460D01*
X8267Y230098D01*
X9566Y232460D02*
X9566Y225374D01*
X9566Y227736D02*
X12814Y231279D01*
X11190Y229507D02*
X13897Y225374D01*
X15196Y232460D02*
X15196Y226555D01*
X16279Y225374D01*
X19527Y225374D01*
X15196Y229507D02*
X17362Y229507D01*
X20826Y229507D02*
X20826Y226555D01*
X21909Y225374D01*
X24074Y225374D01*
X25157Y226555D01*
X25157Y229507D02*
X25157Y225374D01*
X30787Y225964D02*
X29704Y225374D01*
X27539Y225374D01*
X26456Y226555D01*
X26456Y228326D01*
X27539Y229507D01*
X29704Y229507D01*
X30787Y228917D01*
X30787Y228326D01*
X29704Y227736D01*
X26456Y227736D01*
X32086Y225374D02*
X36417Y225374D01*
X33169Y232460D02*
X34251Y232460D01*
X34251Y225374D01*
X37716Y225374D02*
X42047Y225374D01*
X38799Y232460D02*
X39881Y232460D01*
X39881Y225374D01*
X47677Y225964D02*
X46594Y225374D01*
X44429Y225374D01*
X43346Y226555D01*
X43346Y228326D01*
X44429Y229507D01*
X46594Y229507D01*
X47677Y228917D01*
X47677Y228326D01*
X46594Y227736D01*
X43346Y227736D01*
X48976Y225374D02*
X52765Y225374D01*
X53307Y226555D01*
X52765Y227736D01*
X49517Y227736D01*
X48976Y228917D01*
X49517Y229507D01*
X53307Y229507D01*
X60236Y232460D02*
X60236Y225374D01*
X60236Y228917D02*
X62942Y228917D01*
X64025Y229507D01*
X64566Y230688D01*
X64025Y231870D01*
X62942Y232460D01*
X60236Y232460D01*
X65866Y229507D02*
X65866Y225374D01*
X65866Y227736D02*
X67490Y229507D01*
X70196Y229507D01*
X71496Y228326D02*
X71496Y226555D01*
X71496Y228326D02*
X72578Y229507D01*
X74744Y229507D01*
X75826Y228326D01*
X75826Y226555D01*
X74744Y225374D01*
X72578Y225374D01*
X71496Y226555D01*
X77125Y223011D02*
X80374Y223011D01*
X81456Y224192D01*
X81456Y229507D01*
X79832Y229507D01*
X81456Y232460D02*
X81456Y231870D01*
X87086Y225964D02*
X86003Y225374D01*
X83838Y225374D01*
X82755Y226555D01*
X82755Y228326D01*
X83838Y229507D01*
X86003Y229507D01*
X87086Y228917D01*
X87086Y228326D01*
X86003Y227736D01*
X82755Y227736D01*
X88385Y232460D02*
X88385Y225374D01*
X88385Y227736D02*
X91633Y231279D01*
X90009Y229507D02*
X92716Y225374D01*
X94015Y232460D02*
X94015Y226555D01*
X95098Y225374D01*
X98346Y225374D01*
X94015Y229507D02*
X96181Y229507D01*
X105275Y229507D02*
X107440Y225374D01*
X109606Y229507D01*
X110905Y228326D02*
X110905Y226555D01*
X110905Y228326D02*
X111988Y229507D01*
X114153Y229507D01*
X115236Y228326D01*
X115236Y226555D01*
X114153Y225374D01*
X111988Y225374D01*
X110905Y226555D01*
X116535Y225374D02*
X116535Y229507D01*
X116535Y228326D02*
X117618Y229507D01*
X119783Y229507D01*
X120866Y228326D01*
X120866Y225374D01*
X127795Y232460D02*
X132125Y232460D01*
X129960Y232460D02*
X129960Y225374D01*
X133425Y225374D02*
X133425Y230098D01*
X133425Y227736D02*
X137755Y227736D01*
X137755Y230098D02*
X137755Y225374D01*
X133425Y230098D02*
X135590Y232460D01*
X137755Y230098D01*
X139055Y232460D02*
X139055Y225374D01*
X139055Y228917D02*
X141761Y228917D01*
X142844Y229507D01*
X143385Y230688D01*
X142844Y231870D01*
X141761Y232460D01*
X139055Y232460D01*
X141220Y228917D02*
X143385Y225374D01*
X146309Y232460D02*
X145226Y231870D01*
X144685Y230688D01*
X144685Y227145D01*
X145226Y225964D01*
X146309Y225374D01*
X147391Y225374D01*
X148474Y225964D01*
X149015Y227145D01*
X149015Y228917D01*
X147933Y228917D01*
X146309Y232460D02*
X147391Y232460D01*
X148474Y231870D01*
X150314Y232460D02*
X150314Y225374D01*
X154645Y225374D01*
X150314Y228917D02*
X152480Y228917D01*
X150314Y232460D02*
X154645Y232460D01*
X155944Y232460D02*
X160275Y232460D01*
X158110Y232460D02*
X158110Y225374D01*
X167204Y225374D02*
X167204Y232460D01*
X171535Y225374D01*
X171535Y232460D01*
X175541Y225374D02*
X176624Y225964D01*
X177165Y227145D01*
X175541Y225374D02*
X174458Y225374D01*
X173375Y225964D01*
X172834Y227145D01*
X172834Y230688D01*
X173375Y231870D01*
X174458Y232460D01*
X175541Y232460D01*
X176624Y231870D01*
X177165Y230688D01*
X178464Y228917D02*
X182795Y228917D01*
X184094Y232460D02*
X184094Y225374D01*
X188425Y225374D01*
X184094Y228917D02*
X186259Y228917D01*
X184094Y232460D02*
X188425Y232460D01*
X194055Y232460D02*
X194055Y225374D01*
X190807Y225374D01*
X189724Y226555D01*
X189724Y228326D01*
X190807Y229507D01*
X194055Y229507D01*
X195354Y225374D02*
X199685Y225374D01*
X197519Y225374D02*
X197519Y229507D01*
X197519Y232460D02*
X197519Y231870D01*
X195895Y229507D02*
X197519Y229507D01*
X200984Y232460D02*
X200984Y226555D01*
X202066Y225374D01*
X205314Y225374D01*
X200984Y229507D02*
X203149Y229507D01*
X206614Y225374D02*
X210944Y225374D01*
X208779Y225374D02*
X208779Y229507D01*
X208779Y232460D02*
X208779Y231870D01*
X207155Y229507D02*
X208779Y229507D01*
X212244Y228326D02*
X212244Y226555D01*
X212244Y228326D02*
X213326Y229507D01*
X215492Y229507D01*
X216574Y228326D01*
X216574Y226555D01*
X215492Y225374D01*
X213326Y225374D01*
X212244Y226555D01*
X217874Y225374D02*
X217874Y229507D01*
X217874Y228326D02*
X218956Y229507D01*
X221122Y229507D01*
X222204Y228326D01*
X222204Y225374D01*
X224586Y225964D02*
X224586Y225374D01*
X225127Y225374D01*
X225127Y225964D01*
X224586Y225964D01*
X225127Y228917D02*
X224586Y228917D01*
X224586Y228326D01*
X225127Y228326D01*
X225127Y228917D01*
X234763Y232460D02*
X234763Y225374D01*
X234763Y227736D02*
X239094Y232460D01*
X236387Y229507D02*
X239094Y225374D01*
X240393Y228326D02*
X240393Y226555D01*
X240393Y228326D02*
X241476Y229507D01*
X243641Y229507D01*
X244724Y228326D01*
X244724Y226555D01*
X243641Y225374D01*
X241476Y225374D01*
X240393Y226555D01*
X250354Y225374D02*
X250354Y228326D01*
X249271Y229507D01*
X248188Y225374D02*
X248188Y228326D01*
X246023Y229507D02*
X249271Y229507D01*
X246023Y225374D02*
X246023Y229507D01*
X248188Y228326D02*
X247106Y229507D01*
X255984Y225374D02*
X255984Y228326D01*
X254901Y229507D01*
X253818Y225374D02*
X253818Y228326D01*
X251653Y229507D02*
X254901Y229507D01*
X251653Y225374D02*
X251653Y229507D01*
X253818Y228326D02*
X252736Y229507D01*
X261614Y225964D02*
X260531Y225374D01*
X258366Y225374D01*
X257283Y226555D01*
X257283Y228326D01*
X258366Y229507D01*
X260531Y229507D01*
X261614Y228917D01*
X261614Y228326D01*
X260531Y227736D01*
X257283Y227736D01*
X262913Y229507D02*
X262913Y225374D01*
X262913Y227736D02*
X264537Y229507D01*
X267244Y229507D01*
X268543Y229507D02*
X272874Y229507D01*
X268543Y225374D01*
X272874Y225374D01*
X274173Y225374D02*
X278503Y225374D01*
X276338Y225374D02*
X276338Y229507D01*
X276338Y232460D02*
X276338Y231870D01*
X274714Y229507D02*
X276338Y229507D01*
X284133Y225964D02*
X283051Y225374D01*
X280885Y225374D01*
X279803Y226555D01*
X279803Y228326D01*
X280885Y229507D01*
X283051Y229507D01*
X284133Y228917D01*
X284133Y228326D01*
X283051Y227736D01*
X279803Y227736D01*
X285433Y225374D02*
X289763Y225374D01*
X286515Y232460D02*
X287598Y232460D01*
X287598Y225374D01*
X291062Y225374D02*
X295393Y225374D01*
X292145Y232460D02*
X293228Y232460D01*
X293228Y225374D01*
X301023Y225964D02*
X299940Y225374D01*
X297775Y225374D01*
X296692Y226555D01*
X296692Y228326D01*
X297775Y229507D01*
X299940Y229507D01*
X301023Y228917D01*
X301023Y228326D01*
X299940Y227736D01*
X296692Y227736D01*
X307952Y225374D02*
X307952Y232460D01*
X312283Y225374D01*
X312283Y232460D01*
X313582Y229507D02*
X313582Y226555D01*
X314665Y225374D01*
X316830Y225374D01*
X317913Y226555D01*
X317913Y229507D02*
X317913Y225374D01*
X319212Y232460D02*
X319212Y226555D01*
X320295Y225374D01*
X323543Y225374D01*
X319212Y229507D02*
X321377Y229507D01*
X324842Y229507D02*
X329173Y229507D01*
X324842Y225374D01*
X329173Y225374D01*
X330472Y229507D02*
X330472Y226555D01*
X331555Y225374D01*
X333720Y225374D01*
X334803Y226555D01*
X334803Y229507D02*
X334803Y225374D01*
X336102Y225374D02*
X336102Y229507D01*
X336102Y228326D02*
X337185Y229507D01*
X339350Y229507D01*
X340433Y228326D01*
X340433Y225374D01*
X346062Y226555D02*
X344980Y225374D01*
X342814Y225374D01*
X341732Y226555D01*
X341732Y228326D01*
X342814Y229507D01*
X344980Y229507D01*
X346062Y228326D01*
X346062Y224192D01*
X344980Y223011D01*
X341732Y223011D01*
X352992Y225374D02*
X357322Y225374D01*
X355157Y225374D02*
X355157Y229507D01*
X355157Y232460D02*
X355157Y231870D01*
X353533Y229507D02*
X355157Y229507D01*
X358622Y225374D02*
X362411Y225374D01*
X362952Y226555D01*
X362411Y227736D01*
X359163Y227736D01*
X358622Y228917D01*
X359163Y229507D01*
X362952Y229507D01*
X364251Y232460D02*
X364251Y226555D01*
X365334Y225374D01*
X368582Y225374D01*
X364251Y229507D02*
X366417Y229507D01*
X375511Y225374D02*
X379301Y225374D01*
X379842Y226555D01*
X379301Y227736D01*
X376053Y227736D01*
X375511Y228917D01*
X376053Y229507D01*
X379842Y229507D01*
X381141Y232460D02*
X381141Y226555D01*
X382224Y225374D01*
X385472Y225374D01*
X381141Y229507D02*
X383307Y229507D01*
X386771Y229507D02*
X386771Y225374D01*
X386771Y227736D02*
X388395Y229507D01*
X391102Y229507D01*
X392401Y226555D02*
X393484Y225374D01*
X395649Y225374D01*
X396732Y226555D01*
X392401Y226555D02*
X392401Y228326D01*
X393484Y229507D01*
X395649Y229507D01*
X396732Y228326D01*
X396732Y225374D01*
X398031Y223011D02*
X398031Y231279D01*
X399114Y232460D01*
X402362Y232460D01*
X398031Y227736D02*
X400196Y227736D01*
X403661Y232460D02*
X403661Y225374D01*
X406909Y225374D01*
X407992Y226555D01*
X407992Y228326D01*
X406909Y229507D01*
X403661Y229507D01*
X409291Y226555D02*
X410374Y225374D01*
X412539Y225374D01*
X413622Y226555D01*
X409291Y226555D02*
X409291Y228326D01*
X410374Y229507D01*
X412539Y229507D01*
X413622Y228326D01*
X413622Y225374D01*
X414921Y229507D02*
X414921Y225374D01*
X414921Y227736D02*
X416545Y229507D01*
X419251Y229507D01*
X422716Y225374D02*
X422716Y225964D01*
X423257Y225964D01*
X423257Y225374D01*
X422716Y225374D01*
X422716Y227736D02*
X423257Y227736D01*
X423799Y231279D01*
X423257Y232460D01*
X422716Y232460D01*
X422175Y231279D01*
X422716Y227736D01*
G54D14*
X82500Y205492D02*
X82362Y205629D01*
G54D15*
X22500Y142500D02*
X92500Y142500D01*
X125334Y5596D02*
X122297Y2559D01*
X212440Y2559D01*
X212440Y214940D01*
X2559Y214940D01*
X2559Y2559D01*
X12702Y2559D01*
X7381Y7880D01*
X7381Y149619D01*
X15380Y157618D01*
X15380Y157618D01*
X15413Y157651D01*
X15413Y157741D01*
X17258Y159586D01*
X17348Y159586D01*
X17880Y160118D01*
X22119Y160118D01*
X22651Y159586D01*
X27381Y159586D01*
X27381Y164619D01*
X37381Y174619D01*
X37381Y200250D01*
X37362Y200270D01*
X35635Y198543D01*
X29089Y198543D01*
X28346Y199285D01*
X27603Y198543D01*
X17120Y198543D01*
X15275Y200388D01*
X15275Y208172D01*
X14527Y208920D01*
X14527Y211040D01*
X16262Y212775D01*
X18382Y212775D01*
X18441Y212716D01*
X27603Y212716D01*
X28346Y211973D01*
X29089Y212716D01*
X35635Y212716D01*
X37362Y210989D01*
X39089Y212716D01*
X45635Y212716D01*
X47362Y210989D01*
X49089Y212716D01*
X55635Y212716D01*
X57362Y210989D01*
X59089Y212716D01*
X65635Y212716D01*
X67362Y210989D01*
X69089Y212716D01*
X75635Y212716D01*
X77362Y210989D01*
X79089Y212716D01*
X85635Y212716D01*
X87362Y210989D01*
X89089Y212716D01*
X95635Y212716D01*
X99448Y208903D01*
X99448Y202356D01*
X97618Y200526D01*
X97618Y170380D01*
X87618Y160380D01*
X87618Y157977D01*
X89226Y159586D01*
X95773Y159586D01*
X97741Y157618D01*
X100380Y157618D01*
X102381Y159619D01*
X102381Y198401D01*
X102085Y198829D01*
X102225Y199600D01*
X101437Y200388D01*
X101437Y210871D01*
X103282Y212716D01*
X113765Y212716D01*
X114507Y211973D01*
X115250Y212716D01*
X121796Y212716D01*
X123523Y210989D01*
X125250Y212716D01*
X131796Y212716D01*
X133523Y210989D01*
X135250Y212716D01*
X141796Y212716D01*
X143523Y210989D01*
X145250Y212716D01*
X151796Y212716D01*
X153523Y210989D01*
X155250Y212716D01*
X161796Y212716D01*
X163523Y210989D01*
X165250Y212716D01*
X171796Y212716D01*
X173523Y210989D01*
X175250Y212716D01*
X181796Y212716D01*
X183523Y210989D01*
X185250Y212716D01*
X191796Y212716D01*
X193523Y210989D01*
X195250Y212716D01*
X201796Y212716D01*
X205610Y208903D01*
X205610Y202356D01*
X201796Y198543D01*
X195250Y198543D01*
X193523Y200270D01*
X191796Y198543D01*
X185250Y198543D01*
X183523Y200270D01*
X181796Y198543D01*
X175250Y198543D01*
X173523Y200270D01*
X171796Y198543D01*
X165250Y198543D01*
X163523Y200270D01*
X161796Y198543D01*
X155250Y198543D01*
X153523Y200270D01*
X151796Y198543D01*
X145250Y198543D01*
X143523Y200270D01*
X141796Y198543D01*
X135250Y198543D01*
X133523Y200270D01*
X131796Y198543D01*
X125250Y198543D01*
X123523Y200270D01*
X121796Y198543D01*
X115250Y198543D01*
X114507Y199285D01*
X113765Y198543D01*
X112618Y198543D01*
X112618Y155380D01*
X104619Y147381D01*
X97977Y147381D01*
X99586Y145773D01*
X99586Y139226D01*
X95773Y135413D01*
X89226Y135413D01*
X87500Y137140D01*
X85773Y135413D01*
X79226Y135413D01*
X77500Y137140D01*
X75773Y135413D01*
X69226Y135413D01*
X67500Y137140D01*
X65773Y135413D01*
X59226Y135413D01*
X57500Y137140D01*
X55773Y135413D01*
X49226Y135413D01*
X47500Y137140D01*
X45773Y135413D01*
X39226Y135413D01*
X37500Y137140D01*
X35773Y135413D01*
X29226Y135413D01*
X27500Y137140D01*
X25773Y135413D01*
X19226Y135413D01*
X17618Y137022D01*
X17618Y21540D01*
X18892Y22814D01*
X25438Y22814D01*
X27165Y21088D01*
X28892Y22814D01*
X35438Y22814D01*
X37165Y21088D01*
X38892Y22814D01*
X45438Y22814D01*
X47165Y21088D01*
X48892Y22814D01*
X55438Y22814D01*
X57165Y21088D01*
X58892Y22814D01*
X65438Y22814D01*
X66181Y22072D01*
X66923Y22814D01*
X77406Y22814D01*
X79251Y20969D01*
X79251Y10486D01*
X78883Y10118D01*
X85388Y10118D01*
X83129Y12376D01*
X83129Y18922D01*
X86943Y22736D01*
X93489Y22736D01*
X95216Y21009D01*
X96943Y22736D01*
X98248Y22736D01*
X98287Y22775D01*
X102145Y22775D01*
X102184Y22736D01*
X103489Y22736D01*
X105216Y21009D01*
X106943Y22736D01*
X108248Y22736D01*
X108287Y22775D01*
X112145Y22775D01*
X112184Y22736D01*
X113489Y22736D01*
X115216Y21009D01*
X116943Y22736D01*
X123489Y22736D01*
X125216Y21009D01*
X126943Y22736D01*
X133489Y22736D01*
X135216Y21009D01*
X136943Y22736D01*
X143489Y22736D01*
X145216Y21009D01*
X146943Y22736D01*
X153489Y22736D01*
X154232Y21993D01*
X154974Y22736D01*
X165458Y22736D01*
X167303Y20891D01*
X167303Y10407D01*
X165458Y8562D01*
X154974Y8562D01*
X154232Y9305D01*
X153489Y8562D01*
X146943Y8562D01*
X145216Y10289D01*
X143489Y8562D01*
X136943Y8562D01*
X135216Y10289D01*
X133489Y8562D01*
X126943Y8562D01*
X125334Y10171D01*
X125334Y5596D01*
X22500Y152500D02*
X20000Y155000D01*
X12500Y147500D02*
X12500Y10000D01*
X17500Y5000D01*
X117500Y5000D01*
X120216Y7716D01*
X120216Y15649D01*
X22500Y152500D02*
X17500Y152500D01*
X12500Y147500D01*
X42500Y172500D02*
X42500Y205492D01*
X42362Y205629D01*
X42500Y172500D02*
X32500Y162500D01*
X32500Y152500D01*
X52500Y172500D02*
X52500Y205492D01*
X52362Y205629D01*
X52500Y172500D02*
X42500Y162500D01*
X42500Y152500D01*
X52500Y162500D02*
X62500Y172500D01*
X62500Y205492D02*
X62362Y205629D01*
X62500Y172500D02*
X62500Y205492D01*
X52500Y162500D02*
X52500Y152500D01*
X62500Y152500D02*
X62500Y162500D01*
X72500Y205492D02*
X72362Y205629D01*
X72500Y172500D02*
X72500Y205492D01*
X62500Y162500D02*
X72500Y172500D01*
X72500Y162500D02*
X82500Y172500D01*
X82500Y205492D02*
X82362Y205629D01*
X72500Y162500D02*
X72500Y152500D01*
X82500Y172500D02*
X82500Y205492D01*
X92500Y172500D02*
X92500Y205492D01*
X92362Y205629D01*
X82500Y162500D02*
X82500Y152500D01*
X92500Y172500D02*
X82500Y162500D01*
X107500Y157500D02*
X107500Y200000D01*
X102500Y152500D02*
X92500Y152500D01*
X107500Y157500D02*
X102500Y152500D01*
X107500Y200000D02*
X108523Y205629D01*
G54D18*
X32362Y205629D03*
X42362Y205629D03*
X52362Y205629D03*
X62362Y205629D03*
X72362Y205629D03*
X82362Y205629D03*
X92362Y205629D03*
X118523Y205629D03*
X128523Y205629D03*
X138523Y205629D03*
X148523Y205629D03*
X158523Y205629D03*
X168523Y205629D03*
X178523Y205629D03*
X188523Y205629D03*
X198523Y205629D03*
X22500Y142500D03*
X32500Y152500D03*
X32500Y142500D03*
X42500Y152500D03*
X42500Y142500D03*
X52500Y152500D03*
X52500Y142500D03*
X62500Y152500D03*
X62500Y142500D03*
X72500Y152500D03*
X72500Y142500D03*
X82500Y152500D03*
X82500Y142500D03*
X92500Y152500D03*
X92500Y142500D03*
G54D19*
X150216Y15649D03*
X140216Y15649D03*
X130216Y15649D03*
X120216Y15649D03*
X110216Y15649D03*
X100216Y15649D03*
X90216Y15649D03*
X62165Y15728D03*
X52165Y15728D03*
X42165Y15728D03*
X32165Y15728D03*
X22165Y15728D03*
G54D20*
X22362Y205629D03*
X108523Y205629D03*
X22500Y152500D03*
G54D21*
X160216Y15649D03*
X72165Y15728D03*
G36*
X20531Y135413D02*
X20531Y142500D01*
X24468Y142500D01*
X24468Y135413D01*
X20531Y135413D01*
G37*
G36*
X20531Y135413D02*
X20531Y142500D01*
X24468Y142500D01*
X24468Y135413D01*
X20531Y135413D01*
G37*
G36*
X30531Y135413D02*
X30531Y142500D01*
X34468Y142500D01*
X34468Y135413D01*
X30531Y135413D01*
G37*
G36*
X40531Y135413D02*
X40531Y142500D01*
X44468Y142500D01*
X44468Y135413D01*
X40531Y135413D01*
G37*
G36*
X50531Y135413D02*
X50531Y142500D01*
X54468Y142500D01*
X54468Y135413D01*
X50531Y135413D01*
G37*
G36*
X60531Y135413D02*
X60531Y142500D01*
X64468Y142500D01*
X64468Y135413D01*
X60531Y135413D01*
G37*
G36*
X70531Y135413D02*
X70531Y142500D01*
X74468Y142500D01*
X74468Y135413D01*
X70531Y135413D01*
G37*
G36*
X80531Y135413D02*
X80531Y142500D01*
X84468Y142500D01*
X84468Y135413D01*
X80531Y135413D01*
G37*
G36*
X92500Y140531D02*
X92500Y144468D01*
X99586Y144468D01*
X99586Y140531D01*
X92500Y140531D01*
G37*
G36*
X90531Y135413D02*
X90531Y142500D01*
X94468Y142500D01*
X94468Y135413D01*
X90531Y135413D01*
G37*
G36*
X166555Y205629D02*
X166555Y212716D01*
X170492Y212716D01*
X170492Y205629D01*
X166555Y205629D01*
G37*
G36*
X166555Y198543D02*
X166555Y205629D01*
X170492Y205629D01*
X170492Y198543D01*
X166555Y198543D01*
G37*
G36*
X16252Y212627D02*
X2401Y214816D01*
X2422Y215088D01*
X212587Y215088D01*
X212589Y214794D01*
X16252Y212627D01*
G37*
G36*
X18383Y212627D02*
X16116Y212627D01*
X16114Y212921D01*
X212586Y215090D01*
X212590Y214794D01*
X18383Y212627D01*
G37*
G36*
X18381Y212568D02*
X18209Y212740D01*
X18283Y212922D01*
X212586Y215090D01*
X212590Y214794D01*
X18381Y212568D01*
G37*
G36*
X27604Y212568D02*
X18295Y212568D01*
X18293Y212862D01*
X212586Y215090D01*
X212590Y214795D01*
X27604Y212568D01*
G37*
G36*
X29089Y212568D02*
X27457Y212568D01*
X27455Y212862D01*
X212586Y215090D01*
X212590Y214795D01*
X29089Y212568D01*
G37*
G36*
X35636Y212568D02*
X28942Y212568D01*
X28940Y212862D01*
X212586Y215090D01*
X212590Y214795D01*
X35636Y212568D01*
G37*
G36*
X39090Y212568D02*
X35488Y212568D01*
X35486Y212862D01*
X212586Y215090D01*
X212590Y214795D01*
X39090Y212568D01*
G37*
G36*
X45636Y212568D02*
X38942Y212568D01*
X38940Y212862D01*
X212586Y215090D01*
X212590Y214795D01*
X45636Y212568D01*
G37*
G36*
X49090Y212568D02*
X45488Y212568D01*
X45486Y212862D01*
X212586Y215090D01*
X212590Y214795D01*
X49090Y212568D01*
G37*
G36*
X55636Y212568D02*
X48942Y212568D01*
X48940Y212862D01*
X212586Y215090D01*
X212590Y214795D01*
X55636Y212568D01*
G37*
G36*
X59090Y212568D02*
X55488Y212568D01*
X55486Y212862D01*
X212586Y215090D01*
X212590Y214795D01*
X59090Y212568D01*
G37*
G36*
X65636Y212568D02*
X58942Y212568D01*
X58940Y212862D01*
X212586Y215090D01*
X212590Y214795D01*
X65636Y212568D01*
G37*
G36*
X69090Y212568D02*
X65488Y212568D01*
X65486Y212861D01*
X212586Y215090D01*
X212590Y214795D01*
X69090Y212568D01*
G37*
G36*
X75636Y212568D02*
X68942Y212568D01*
X68940Y212861D01*
X212586Y215090D01*
X212590Y214795D01*
X75636Y212568D01*
G37*
G36*
X79090Y212568D02*
X75488Y212568D01*
X75486Y212861D01*
X212586Y215090D01*
X212590Y214795D01*
X79090Y212568D01*
G37*
G36*
X85636Y212568D02*
X78942Y212568D01*
X78940Y212861D01*
X212586Y215091D01*
X212591Y214795D01*
X85636Y212568D01*
G37*
G36*
X89090Y212568D02*
X85488Y212568D01*
X85486Y212861D01*
X212585Y215091D01*
X212591Y214795D01*
X89090Y212568D01*
G37*
G36*
X95636Y212568D02*
X88942Y212568D01*
X88940Y212861D01*
X212585Y215091D01*
X212591Y214796D01*
X95636Y212568D01*
G37*
G36*
X103283Y212568D02*
X95489Y212568D01*
X95486Y212861D01*
X212585Y215091D01*
X212591Y214796D01*
X103283Y212568D01*
G37*
G36*
X113766Y212568D02*
X103135Y212568D01*
X103132Y212861D01*
X212585Y215091D01*
X212591Y214796D01*
X113766Y212568D01*
G37*
G36*
X115252Y212568D02*
X113619Y212568D01*
X113615Y212860D01*
X212585Y215091D01*
X212591Y214796D01*
X115252Y212568D01*
G37*
G36*
X121798Y212568D02*
X115104Y212568D01*
X115101Y212860D01*
X212585Y215091D01*
X212592Y214796D01*
X121798Y212568D01*
G37*
G36*
X125252Y212568D02*
X121650Y212568D01*
X121647Y212860D01*
X212584Y215092D01*
X212592Y214797D01*
X125252Y212568D01*
G37*
G36*
X131798Y212568D02*
X125104Y212568D01*
X125101Y212860D01*
X212584Y215092D01*
X212592Y214797D01*
X131798Y212568D01*
G37*
G36*
X135252Y212568D02*
X131651Y212568D01*
X131647Y212860D01*
X212584Y215092D01*
X212592Y214797D01*
X135252Y212568D01*
G37*
G36*
X141799Y212568D02*
X135104Y212568D01*
X135100Y212859D01*
X212584Y215092D01*
X212592Y214798D01*
X141799Y212568D01*
G37*
G36*
X145252Y212568D02*
X141651Y212568D01*
X141646Y212859D01*
X212583Y215093D01*
X212593Y214798D01*
X145252Y212568D01*
G37*
G36*
X151799Y212568D02*
X145105Y212568D01*
X145100Y212859D01*
X212583Y215093D01*
X212593Y214798D01*
X151799Y212568D01*
G37*
G36*
X155253Y212568D02*
X151651Y212568D01*
X151646Y212858D01*
X212582Y215093D01*
X212594Y214799D01*
X155253Y212568D01*
G37*
G36*
X161799Y212568D02*
X155105Y212568D01*
X155100Y212858D01*
X212582Y215094D01*
X212594Y214799D01*
X161799Y212568D01*
G37*
G36*
X165253Y212568D02*
X161652Y212568D01*
X161645Y212857D01*
X212581Y215094D01*
X212595Y214800D01*
X165253Y212568D01*
G37*
G36*
X171800Y212568D02*
X165106Y212568D01*
X165099Y212857D01*
X212580Y215095D01*
X212595Y214801D01*
X171800Y212568D01*
G37*
G36*
X175254Y212568D02*
X171653Y212568D01*
X171645Y212856D01*
X212579Y215096D01*
X212596Y214802D01*
X175254Y212568D01*
G37*
G36*
X181802Y212568D02*
X175107Y212568D01*
X175098Y212855D01*
X212578Y215097D01*
X212597Y214804D01*
X181802Y212568D01*
G37*
G36*
X185256Y212568D02*
X181654Y212568D01*
X181644Y212853D01*
X212576Y215098D01*
X212599Y214805D01*
X185256Y212568D01*
G37*
G36*
X191804Y212568D02*
X185108Y212568D01*
X185097Y212852D01*
X212574Y215099D01*
X212601Y214809D01*
X191804Y212568D01*
G37*
G36*
X195260Y212568D02*
X191656Y212568D01*
X191641Y212848D01*
X212570Y215103D01*
X212604Y214813D01*
X195260Y212568D01*
G37*
G36*
X201811Y212568D02*
X195112Y212568D01*
X195094Y212845D01*
X212562Y215105D01*
X212610Y214825D01*
X201811Y212568D01*
G37*
G36*
X28346Y211765D02*
X27429Y212681D01*
X27505Y212864D01*
X29187Y212864D01*
X29263Y212681D01*
X28346Y211765D01*
G37*
G36*
X114507Y211765D02*
X113591Y212681D01*
X113666Y212864D01*
X115349Y212864D01*
X115424Y212681D01*
X114507Y211765D01*
G37*
G36*
X14567Y210871D02*
X2383Y214842D01*
X2447Y215108D01*
X16375Y212907D01*
X16431Y212735D01*
X14567Y210871D01*
G37*
G36*
X37362Y210780D02*
X35461Y212681D01*
X35536Y212864D01*
X39187Y212864D01*
X39263Y212681D01*
X37362Y210780D01*
G37*
G36*
X47362Y210780D02*
X45461Y212681D01*
X45536Y212864D01*
X49187Y212864D01*
X49263Y212681D01*
X47362Y210780D01*
G37*
G36*
X57362Y210780D02*
X55461Y212681D01*
X55536Y212864D01*
X59187Y212864D01*
X59263Y212681D01*
X57362Y210780D01*
G37*
G36*
X67362Y210780D02*
X65461Y212681D01*
X65536Y212864D01*
X69187Y212864D01*
X69263Y212681D01*
X67362Y210780D01*
G37*
G36*
X77362Y210780D02*
X75461Y212681D01*
X75536Y212864D01*
X79187Y212864D01*
X79263Y212681D01*
X77362Y210780D01*
G37*
G36*
X87362Y210780D02*
X85461Y212681D01*
X85536Y212864D01*
X89187Y212864D01*
X89263Y212681D01*
X87362Y210780D01*
G37*
G36*
X123523Y210780D02*
X121622Y212681D01*
X121698Y212864D01*
X125349Y212864D01*
X125424Y212681D01*
X123523Y210780D01*
G37*
G36*
X133523Y210780D02*
X131622Y212681D01*
X131698Y212864D01*
X135349Y212864D01*
X135424Y212681D01*
X133523Y210780D01*
G37*
G36*
X143523Y210780D02*
X141622Y212681D01*
X141698Y212864D01*
X145349Y212864D01*
X145424Y212681D01*
X143523Y210780D01*
G37*
G36*
X153523Y210780D02*
X151622Y212681D01*
X151698Y212864D01*
X155349Y212864D01*
X155424Y212681D01*
X153523Y210780D01*
G37*
G36*
X163523Y210780D02*
X161622Y212681D01*
X161698Y212864D01*
X165349Y212864D01*
X165424Y212681D01*
X163523Y210780D01*
G37*
G36*
X173523Y210780D02*
X171622Y212681D01*
X171698Y212864D01*
X175349Y212864D01*
X175424Y212681D01*
X173523Y210780D01*
G37*
G36*
X183523Y210780D02*
X181622Y212681D01*
X181698Y212864D01*
X185349Y212864D01*
X185424Y212681D01*
X183523Y210780D01*
G37*
G36*
X193523Y210780D02*
X191622Y212681D01*
X191698Y212864D01*
X195349Y212864D01*
X195424Y212681D01*
X193523Y210780D01*
G37*
G36*
X101477Y210703D02*
X95470Y212614D01*
X95508Y212864D01*
X103380Y212864D01*
X103456Y212681D01*
X101477Y210703D01*
G37*
G36*
X14675Y208680D02*
X2370Y214870D01*
X2474Y215123D01*
X14675Y211147D01*
X14675Y208680D01*
G37*
G36*
X99448Y208694D02*
X95448Y212694D01*
X95569Y212892D01*
X101714Y210938D01*
X99448Y208694D01*
G37*
G36*
X205604Y208700D02*
X201630Y212674D01*
X201680Y212843D01*
X212521Y215108D01*
X212623Y214905D01*
X205604Y208700D01*
G37*
G36*
X15318Y207982D02*
X2360Y214879D01*
X2495Y215138D01*
X14615Y209041D01*
X15469Y208186D01*
X15318Y207982D01*
G37*
G36*
X99562Y202195D02*
X99301Y202225D01*
X99301Y208964D01*
X101412Y211054D01*
X101606Y210946D01*
X99562Y202195D01*
G37*
G36*
X205685Y202185D02*
X205462Y202241D01*
X205462Y208969D01*
X212435Y215133D01*
X212629Y214979D01*
X205685Y202185D01*
G37*
G36*
X15231Y200214D02*
X2366Y214936D01*
X2519Y215129D01*
X15423Y208260D01*
X15423Y200286D01*
X15231Y200214D01*
G37*
G36*
X101403Y200214D02*
X99286Y202309D01*
X101323Y211033D01*
X101584Y211003D01*
X101584Y200289D01*
X101403Y200214D01*
G37*
G36*
X101532Y200237D02*
X97516Y200382D01*
X97445Y200562D01*
X99448Y202565D01*
X101612Y200422D01*
X101532Y200237D01*
G37*
G36*
X102303Y199433D02*
X97455Y200408D01*
X97487Y200678D01*
X101500Y200533D01*
X102407Y199626D01*
X102303Y199433D01*
G37*
G36*
X102198Y198628D02*
X97438Y200436D01*
X97513Y200697D01*
X102396Y199716D01*
X102198Y198628D01*
G37*
G36*
X29187Y198395D02*
X27505Y198395D01*
X27429Y198577D01*
X28346Y199494D01*
X29263Y198577D01*
X29187Y198395D01*
G37*
G36*
X35633Y198335D02*
X35427Y198543D01*
X37362Y200478D01*
X37591Y200249D01*
X35633Y198335D01*
G37*
G36*
X115349Y198395D02*
X113666Y198395D01*
X113591Y198577D01*
X114507Y199494D01*
X115424Y198577D01*
X115349Y198395D01*
G37*
G36*
X125349Y198395D02*
X121698Y198395D01*
X121622Y198577D01*
X123523Y200478D01*
X125424Y198577D01*
X125349Y198395D01*
G37*
G36*
X135349Y198395D02*
X131698Y198395D01*
X131622Y198577D01*
X133523Y200478D01*
X135424Y198577D01*
X135349Y198395D01*
G37*
G36*
X145349Y198395D02*
X141698Y198395D01*
X141622Y198577D01*
X143523Y200478D01*
X145424Y198577D01*
X145349Y198395D01*
G37*
G36*
X155349Y198395D02*
X151698Y198395D01*
X151622Y198577D01*
X153523Y200478D01*
X155424Y198577D01*
X155349Y198395D01*
G37*
G36*
X165349Y198395D02*
X161698Y198395D01*
X161622Y198577D01*
X163523Y200478D01*
X165424Y198577D01*
X165349Y198395D01*
G37*
G36*
X175349Y198395D02*
X171698Y198395D01*
X171622Y198577D01*
X173523Y200478D01*
X175424Y198577D01*
X175349Y198395D01*
G37*
G36*
X185349Y198395D02*
X181698Y198395D01*
X181622Y198577D01*
X183523Y200478D01*
X185424Y198577D01*
X185349Y198395D01*
G37*
G36*
X195349Y198395D02*
X191698Y198395D01*
X191622Y198577D01*
X193523Y200478D01*
X195424Y198577D01*
X195349Y198395D01*
G37*
G36*
X102424Y198220D02*
X97426Y200449D01*
X97536Y200715D01*
X102180Y198951D01*
X102567Y198393D01*
X102424Y198220D01*
G37*
G36*
X37245Y174467D02*
X35483Y198600D01*
X37348Y200424D01*
X37529Y200348D01*
X37529Y174477D01*
X37245Y174467D01*
G37*
G36*
X37338Y174442D02*
X16946Y198519D01*
X17026Y198690D01*
X35772Y198690D01*
X37536Y174523D01*
X37338Y174442D01*
G37*
G36*
X37365Y174412D02*
X15071Y200400D01*
X15279Y200593D01*
X17229Y198643D01*
X37589Y174603D01*
X37365Y174412D01*
G37*
G36*
X37366Y174411D02*
X2351Y214955D01*
X2573Y215148D01*
X15387Y200484D01*
X37589Y174604D01*
X37366Y174411D01*
G37*
G36*
X97740Y170221D02*
X97470Y170244D01*
X97470Y200753D01*
X102546Y198489D01*
X97740Y170221D01*
G37*
G36*
X27340Y164369D02*
X2369Y214992D01*
X2585Y215135D01*
X37583Y174612D01*
X27340Y164369D01*
G37*
G36*
X17784Y159909D02*
X2380Y215030D01*
X2631Y215126D01*
X27580Y164550D01*
X17784Y159909D01*
G37*
G36*
X22174Y159970D02*
X17761Y159970D01*
X17710Y160200D01*
X27435Y164808D01*
X27576Y164591D01*
X22174Y159970D01*
G37*
G36*
X102295Y159450D02*
X97465Y170360D01*
X102259Y198559D01*
X102529Y198536D01*
X102529Y159500D01*
X102295Y159450D01*
G37*
G36*
X102614Y159460D02*
X87514Y160237D01*
X87445Y160416D01*
X97665Y170636D01*
X102614Y159460D01*
G37*
G36*
X17175Y159321D02*
X2378Y215044D01*
X2661Y215121D01*
X18047Y160067D01*
X17175Y159321D01*
G37*
G36*
X17409Y159438D02*
X17155Y159438D01*
X17084Y159631D01*
X17891Y160322D01*
X18084Y160114D01*
X17409Y159438D01*
G37*
G36*
X22654Y159374D02*
X21902Y160126D01*
X27392Y164823D01*
X27585Y164620D01*
X22654Y159374D01*
G37*
G36*
X27529Y159438D02*
X22554Y159438D01*
X22477Y159617D01*
X27343Y164794D01*
X27529Y164720D01*
X27529Y159438D01*
G37*
G36*
X89192Y159438D02*
X87444Y160300D01*
X87505Y160533D01*
X102533Y159760D01*
X102525Y159472D01*
X89192Y159438D01*
G37*
G36*
X95773Y159438D02*
X89079Y159438D01*
X89079Y159733D01*
X102528Y159768D01*
X102530Y159473D01*
X95773Y159438D01*
G37*
G36*
X87652Y157803D02*
X87470Y157879D01*
X87470Y160617D01*
X89476Y159627D01*
X87652Y157803D01*
G37*
G36*
X15456Y157575D02*
X15288Y157624D01*
X2383Y215049D01*
X2664Y215118D01*
X17422Y159542D01*
X15456Y157575D01*
G37*
G36*
X15298Y157490D02*
X2382Y215052D01*
X2670Y215117D01*
X15561Y157758D01*
X15561Y157519D01*
X15298Y157490D01*
G37*
G36*
X97708Y157442D02*
X95599Y159551D01*
X95673Y159733D01*
X102501Y159768D01*
X102551Y159532D01*
X97708Y157442D01*
G37*
G36*
X100441Y157470D02*
X97621Y157470D01*
X97572Y157706D01*
X102435Y159803D01*
X102572Y159601D01*
X100441Y157470D01*
G37*
G36*
X112470Y155144D02*
X112470Y198690D01*
X201914Y198690D01*
X201966Y198461D01*
X112470Y155144D01*
G37*
G36*
X7419Y149448D02*
X7241Y149514D01*
X2401Y215066D01*
X2673Y215107D01*
X15575Y157604D01*
X7419Y149448D01*
G37*
G36*
X104576Y147192D02*
X104425Y147396D01*
X112531Y155502D01*
X201863Y198739D01*
X201993Y198480D01*
X104576Y147192D01*
G37*
G36*
X99545Y145605D02*
X97803Y147347D01*
X97879Y147529D01*
X104746Y147529D01*
X104785Y147279D01*
X99545Y145605D01*
G37*
G36*
X99653Y139054D02*
X99438Y139115D01*
X99438Y145880D01*
X104672Y147553D01*
X104799Y147391D01*
X99653Y139054D01*
G37*
G36*
X99561Y139041D02*
X99400Y139206D01*
X104515Y147493D01*
X201855Y198741D01*
X201995Y198488D01*
X99561Y139041D01*
G37*
G36*
X29325Y135265D02*
X25674Y135265D01*
X25598Y135448D01*
X27500Y137349D01*
X29401Y135448D01*
X29325Y135265D01*
G37*
G36*
X39325Y135265D02*
X35674Y135265D01*
X35598Y135448D01*
X37500Y137349D01*
X39401Y135448D01*
X39325Y135265D01*
G37*
G36*
X49325Y135265D02*
X45674Y135265D01*
X45598Y135448D01*
X47500Y137349D01*
X49401Y135448D01*
X49325Y135265D01*
G37*
G36*
X59325Y135265D02*
X55674Y135265D01*
X55598Y135448D01*
X57500Y137349D01*
X59401Y135448D01*
X59325Y135265D01*
G37*
G36*
X69325Y135265D02*
X65674Y135265D01*
X65598Y135448D01*
X67500Y137349D01*
X69401Y135448D01*
X69325Y135265D01*
G37*
G36*
X79325Y135265D02*
X75674Y135265D01*
X75598Y135448D01*
X77500Y137349D01*
X79401Y135448D01*
X79325Y135265D01*
G37*
G36*
X89325Y135265D02*
X85674Y135265D01*
X85598Y135448D01*
X87500Y137349D01*
X89401Y135448D01*
X89325Y135265D01*
G37*
G36*
X95736Y135219D02*
X95576Y135425D01*
X99495Y139344D01*
X201849Y198744D01*
X201998Y198491D01*
X95736Y135219D01*
G37*
G36*
X18898Y22616D02*
X18695Y22788D01*
X95669Y135523D01*
X201834Y198737D01*
X201993Y198528D01*
X18898Y22616D01*
G37*
G36*
X18952Y22641D02*
X18744Y22706D01*
X19079Y135561D01*
X95862Y135561D01*
X95945Y135403D01*
X18952Y22641D01*
G37*
G36*
X18746Y22666D02*
X17469Y137119D01*
X17652Y137196D01*
X19374Y135474D01*
X19039Y22667D01*
X18746Y22666D01*
G37*
G36*
X25499Y22667D02*
X18792Y22667D01*
X18718Y22852D01*
X201799Y198751D01*
X202004Y198541D01*
X25499Y22667D01*
G37*
G36*
X28893Y22606D02*
X28683Y22813D01*
X201691Y198647D01*
X205609Y202565D01*
X205818Y202358D01*
X28893Y22606D01*
G37*
G36*
X28954Y22667D02*
X25339Y22667D01*
X25264Y22849D01*
X201796Y198751D01*
X202005Y198544D01*
X28954Y22667D01*
G37*
G36*
X35501Y22667D02*
X28794Y22667D01*
X28718Y22848D01*
X205607Y202564D01*
X205817Y202361D01*
X35501Y22667D01*
G37*
G36*
X38956Y22667D02*
X35341Y22667D01*
X35264Y22845D01*
X205604Y202564D01*
X205818Y202363D01*
X38956Y22667D01*
G37*
G36*
X45504Y22667D02*
X38795Y22667D01*
X38718Y22844D01*
X205601Y202564D01*
X205817Y202367D01*
X45504Y22667D01*
G37*
G36*
X48959Y22667D02*
X45342Y22667D01*
X45264Y22841D01*
X205597Y202564D01*
X205818Y202370D01*
X48959Y22667D01*
G37*
G36*
X55507Y22667D02*
X48797Y22667D01*
X48718Y22840D01*
X205595Y202563D01*
X205817Y202374D01*
X55507Y22667D01*
G37*
G36*
X58962Y22667D02*
X55344Y22667D01*
X55264Y22837D01*
X205591Y202564D01*
X205817Y202377D01*
X58962Y22667D01*
G37*
G36*
X65510Y22667D02*
X58798Y22667D01*
X58718Y22836D01*
X205588Y202563D01*
X205816Y202381D01*
X65510Y22667D01*
G37*
G36*
X66996Y22667D02*
X65346Y22667D01*
X65265Y22833D01*
X205584Y202563D01*
X205817Y202383D01*
X66996Y22667D01*
G37*
G36*
X77482Y22667D02*
X66831Y22667D01*
X66750Y22832D01*
X205581Y202561D01*
X205814Y202388D01*
X77482Y22667D01*
G37*
G36*
X98371Y22627D02*
X77316Y22667D01*
X77234Y22827D01*
X205572Y202557D01*
X205809Y202402D01*
X98371Y22627D01*
G37*
G36*
X102230Y22627D02*
X98201Y22627D01*
X98116Y22777D01*
X205558Y202558D01*
X205811Y202410D01*
X102230Y22627D01*
G37*
G36*
X108347Y22575D02*
X108087Y22716D01*
X205480Y202427D01*
X212381Y215141D01*
X212641Y215000D01*
X108347Y22575D01*
G37*
G36*
X108375Y22627D02*
X101890Y22627D01*
X205555Y202556D01*
X205809Y202414D01*
X108375Y22627D01*
G37*
G36*
X112234Y22627D02*
X108039Y22627D01*
X212380Y215140D01*
X212639Y215002D01*
X112234Y22627D01*
G37*
G36*
X86943Y22588D02*
X77258Y22668D01*
X77260Y22962D01*
X98435Y22922D01*
X98435Y22628D01*
X86943Y22588D01*
G37*
G36*
X93490Y22588D02*
X86796Y22588D01*
X86795Y22883D01*
X98434Y22923D01*
X98436Y22629D01*
X93490Y22588D01*
G37*
G36*
X96945Y22588D02*
X93342Y22588D01*
X93341Y22882D01*
X98432Y22924D01*
X98437Y22632D01*
X96945Y22588D01*
G37*
G36*
X98309Y22588D02*
X96797Y22588D01*
X96793Y22879D01*
X98383Y22926D01*
X98462Y22742D01*
X98309Y22588D01*
G37*
G36*
X102124Y22588D02*
X101971Y22740D01*
X102046Y22923D01*
X108434Y22923D01*
X108435Y22628D01*
X102124Y22588D01*
G37*
G36*
X103490Y22588D02*
X102037Y22588D01*
X102036Y22882D01*
X108434Y22924D01*
X108436Y22629D01*
X103490Y22588D01*
G37*
G36*
X106945Y22588D02*
X103342Y22588D01*
X103341Y22882D01*
X108432Y22924D01*
X108437Y22632D01*
X106945Y22588D01*
G37*
G36*
X108309Y22588D02*
X106797Y22588D01*
X106793Y22879D01*
X108383Y22926D01*
X108462Y22742D01*
X108309Y22588D01*
G37*
G36*
X112222Y22489D02*
X111964Y22747D01*
X212378Y215140D01*
X212640Y215003D01*
X112222Y22489D01*
G37*
G36*
X113579Y22588D02*
X111941Y22588D01*
X212378Y215139D01*
X212639Y215004D01*
X113579Y22588D01*
G37*
G36*
X117034Y22588D02*
X113247Y22588D01*
X212376Y215138D01*
X212638Y215006D01*
X117034Y22588D01*
G37*
G36*
X123584Y22588D02*
X116705Y22588D01*
X212373Y215137D01*
X212636Y215011D01*
X123584Y22588D01*
G37*
G36*
X127039Y22588D02*
X123258Y22588D01*
X212368Y215135D01*
X212635Y215014D01*
X127039Y22588D01*
G37*
G36*
X133588Y22588D02*
X126716Y22588D01*
X212365Y215133D01*
X212632Y215019D01*
X133588Y22588D01*
G37*
G36*
X137044Y22588D02*
X133269Y22588D01*
X212360Y215132D01*
X212631Y215023D01*
X137044Y22588D01*
G37*
G36*
X143593Y22588D02*
X136726Y22588D01*
X212356Y215130D01*
X212629Y215027D01*
X143593Y22588D01*
G37*
G36*
X147049Y22588D02*
X143279Y22588D01*
X212351Y215128D01*
X212627Y215031D01*
X147049Y22588D01*
G37*
G36*
X153598Y22588D02*
X146737Y22588D01*
X212348Y215126D01*
X212624Y215036D01*
X153598Y22588D01*
G37*
G36*
X155084Y22588D02*
X153289Y22588D01*
X212342Y215124D01*
X212624Y215039D01*
X155084Y22588D01*
G37*
G36*
X165574Y22588D02*
X154776Y22588D01*
X212340Y215121D01*
X212618Y215045D01*
X165574Y22588D01*
G37*
G36*
X66181Y21863D02*
X65264Y22780D01*
X65339Y22962D01*
X67022Y22962D01*
X67097Y22780D01*
X66181Y21863D01*
G37*
G36*
X154232Y21784D02*
X153315Y22701D01*
X153390Y22883D01*
X155073Y22883D01*
X155149Y22701D01*
X154232Y21784D01*
G37*
G36*
X17652Y21366D02*
X17470Y21442D01*
X17470Y137168D01*
X17764Y137170D01*
X19040Y22754D01*
X17652Y21366D01*
G37*
G36*
X27165Y20879D02*
X25264Y22780D01*
X25339Y22962D01*
X28990Y22962D01*
X29066Y22780D01*
X27165Y20879D01*
G37*
G36*
X37165Y20879D02*
X35264Y22780D01*
X35339Y22962D01*
X38990Y22962D01*
X39066Y22780D01*
X37165Y20879D01*
G37*
G36*
X47165Y20879D02*
X45264Y22780D01*
X45339Y22962D01*
X48990Y22962D01*
X49066Y22780D01*
X47165Y20879D01*
G37*
G36*
X57165Y20879D02*
X55264Y22780D01*
X55339Y22962D01*
X58990Y22962D01*
X59066Y22780D01*
X57165Y20879D01*
G37*
G36*
X95216Y20800D02*
X93315Y22701D01*
X93390Y22883D01*
X97042Y22883D01*
X97117Y22701D01*
X95216Y20800D01*
G37*
G36*
X105216Y20800D02*
X103315Y22701D01*
X103390Y22883D01*
X107042Y22883D01*
X107117Y22701D01*
X105216Y20800D01*
G37*
G36*
X115216Y20800D02*
X113315Y22701D01*
X113390Y22883D01*
X117042Y22883D01*
X117117Y22701D01*
X115216Y20800D01*
G37*
G36*
X125216Y20800D02*
X123315Y22701D01*
X123390Y22883D01*
X127042Y22883D01*
X127117Y22701D01*
X125216Y20800D01*
G37*
G36*
X135216Y20800D02*
X133315Y22701D01*
X133390Y22883D01*
X137042Y22883D01*
X137117Y22701D01*
X135216Y20800D01*
G37*
G36*
X145216Y20800D02*
X143315Y22701D01*
X143390Y22883D01*
X147042Y22883D01*
X147117Y22701D01*
X145216Y20800D01*
G37*
G36*
X79205Y20807D02*
X77232Y22780D01*
X77309Y22963D01*
X87075Y22882D01*
X87104Y22621D01*
X79205Y20807D01*
G37*
G36*
X167260Y20725D02*
X165295Y22690D01*
X212332Y215118D01*
X212617Y215050D01*
X167427Y20773D01*
X167260Y20725D01*
G37*
G36*
X83157Y18741D02*
X79092Y20887D01*
X79118Y21090D01*
X87018Y22904D01*
X87126Y22710D01*
X83157Y18741D01*
G37*
G36*
X83044Y12207D02*
X79074Y21005D01*
X79227Y21149D01*
X83277Y19011D01*
X83277Y12257D01*
X83044Y12207D01*
G37*
G36*
X79104Y10250D02*
X79104Y21089D01*
X79337Y21139D01*
X83323Y12306D01*
X79104Y10250D01*
G37*
G36*
X167418Y10246D02*
X167155Y10275D01*
X167155Y20908D01*
X212330Y215117D01*
X212616Y215052D01*
X167418Y10246D01*
G37*
G36*
X78840Y9928D02*
X78689Y10132D01*
X79165Y10608D01*
X83195Y12572D01*
X83327Y12314D01*
X78840Y9928D01*
G37*
G36*
X85486Y9970D02*
X78768Y9970D01*
X78712Y10194D01*
X83157Y12558D01*
X85562Y10152D01*
X85486Y9970D01*
G37*
G36*
X137042Y8415D02*
X133390Y8415D01*
X133315Y8597D01*
X135216Y10498D01*
X137117Y8597D01*
X137042Y8415D01*
G37*
G36*
X147042Y8415D02*
X143390Y8415D01*
X143315Y8597D01*
X145216Y10498D01*
X147117Y8597D01*
X147042Y8415D01*
G37*
G36*
X155073Y8415D02*
X153390Y8415D01*
X153315Y8597D01*
X154232Y9514D01*
X155149Y8597D01*
X155073Y8415D01*
G37*
G36*
X7237Y7730D02*
X2408Y215081D01*
X2695Y215095D01*
X7529Y149625D01*
X7529Y7734D01*
X7237Y7730D01*
G37*
G36*
X125409Y5425D02*
X125187Y5481D01*
X125187Y10270D01*
X125369Y10345D01*
X127125Y8589D01*
X125409Y5425D01*
G37*
G36*
X125258Y5442D02*
X125163Y5589D01*
X126855Y8710D01*
X165600Y8710D01*
X165610Y8426D01*
X125258Y5442D01*
G37*
G36*
X2600Y2384D02*
X2411Y2457D01*
X2411Y215086D01*
X2703Y215090D01*
X7530Y7824D01*
X2600Y2384D01*
G37*
G36*
X12801Y2411D02*
X2463Y2411D01*
X2385Y2587D01*
X7376Y8094D01*
X12876Y2593D01*
X12801Y2411D01*
G37*
G36*
X122212Y2398D02*
X122117Y2588D01*
X125269Y5739D01*
X165589Y8720D01*
X165620Y8436D01*
X122212Y2398D01*
G37*
G36*
X212579Y2411D02*
X122159Y2411D01*
X122140Y2686D01*
X165457Y8711D01*
X212597Y2687D01*
X212579Y2411D01*
G37*
G36*
X212565Y2394D02*
X165348Y8428D01*
X165288Y8602D01*
X167252Y10566D01*
X212608Y2679D01*
X212565Y2394D01*
G37*
G36*
X212588Y2383D02*
X167125Y10288D01*
X212325Y215102D01*
X212588Y215073D01*
X212588Y2383D01*
G37*
G36*
X110216Y14862D02*
X110216Y16437D01*
X114586Y16437D01*
X114586Y14862D01*
X110216Y14862D01*
G37*
G36*
X105846Y14862D02*
X105846Y16437D01*
X110216Y16437D01*
X110216Y14862D01*
X105846Y14862D01*
G37*
G36*
X109429Y15649D02*
X109429Y20019D01*
X111003Y20019D01*
X111003Y15649D01*
X109429Y15649D01*
G37*
G36*
X100216Y14862D02*
X100216Y16437D01*
X104586Y16437D01*
X104586Y14862D01*
X100216Y14862D01*
G37*
G36*
X95846Y14862D02*
X95846Y16437D01*
X100216Y16437D01*
X100216Y14862D01*
X95846Y14862D01*
G37*
G36*
X99429Y15649D02*
X99429Y20019D01*
X101003Y20019D01*
X101003Y15649D01*
X99429Y15649D01*
G37*
M02*
