%FSLAX35Y35*%
%MOIN*%
%TF.FileFunction,Copper,L2,Bot*%
%ADD10C,0.00591*%
%ADD11C,0.00001*%
%ADD12C,0.00650*%
%ADD13C,0.01024*%
%ADD14C,0.01181*%
%ADD15C,0.03937*%
%AMR_16*21,1,0.01575,0.01575,0,0,0.000*%
%ADD16R_16*%
%AMOCT_17*4,1,8,0.035433,0.017717,0.017717,0.035433,-0.017717,0.035433,-0.035433,0.017717,-0.035433,-0.017717,-0.017717,-0.035433,0.017717,-0.035433,0.035433,-0.017717,0.035433,0.017717,90.000*%
%ADD17OCT_17*%
%AMOCT_18*4,1,8,0.035433,0.017717,0.017717,0.035433,-0.017717,0.035433,-0.035433,0.017717,-0.035433,-0.017717,-0.017717,-0.035433,0.017717,-0.035433,0.035433,-0.017717,0.035433,0.017717,270.000*%
%ADD18OCT_18*%
%AMOCT_19*4,1,8,0.039370,0.019685,0.019685,0.039370,-0.019685,0.039370,-0.039370,0.019685,-0.039370,-0.019685,-0.019685,-0.039370,0.019685,-0.039370,0.039370,-0.019685,0.039370,0.019685,0.000*%
%ADD19OCT_19*%
%AMOCT_20*4,1,8,0.039370,0.019685,0.019685,0.039370,-0.019685,0.039370,-0.039370,0.019685,-0.039370,-0.019685,-0.019685,-0.039370,0.019685,-0.039370,0.039370,-0.019685,0.039370,0.019685,90.000*%
%ADD20OCT_20*%
%AMOCT_21*4,1,8,0.039370,0.019685,0.019685,0.039370,-0.019685,0.039370,-0.039370,0.019685,-0.039370,-0.019685,-0.019685,-0.039370,0.019685,-0.039370,0.039370,-0.019685,0.039370,0.019685,180.000*%
%ADD21OCT_21*%
%AMRR_22*21,1,0.07874,0.06299,0,0,0.000*21,1,0.06299,0.07874,0,0,0.000*1,1,0.01575,0.03150,0.03150*1,1,0.01575,-0.03150,-0.03150*1,1,0.01575,0.03150,-0.03150*1,1,0.01575,-0.03150,0.03150*%
%ADD22RR_22*%
%AMRR_23*21,1,0.07874,0.06299,0,0,90.000*21,1,0.06299,0.07874,0,0,90.000*1,1,0.01575,-0.03150,0.03150*1,1,0.01575,0.03150,-0.03150*1,1,0.01575,0.03150,0.03150*1,1,0.01575,-0.03150,-0.03150*%
%ADD23RR_23*%
%AMRR_24*21,1,0.07874,0.06299,0,0,180.000*21,1,0.06299,0.07874,0,0,180.000*1,1,0.01575,-0.03150,-0.03150*1,1,0.01575,0.03150,0.03150*1,1,0.01575,-0.03150,0.03150*1,1,0.01575,0.03150,-0.03150*%
%ADD24RR_24*%
G54D12*
X3937Y227874D02*
X3937Y232598D01*
X3937Y230236D02*
X8267Y230236D01*
X8267Y232598D02*
X8267Y227874D01*
X3937Y232598D02*
X6102Y234960D01*
X8267Y232598D01*
X9566Y234960D02*
X9566Y227874D01*
X9566Y230236D02*
X12814Y233779D01*
X11190Y232007D02*
X13897Y227874D01*
X15196Y234960D02*
X15196Y229055D01*
X16279Y227874D01*
X19527Y227874D01*
X15196Y232007D02*
X17362Y232007D01*
X20826Y232007D02*
X20826Y229055D01*
X21909Y227874D01*
X24074Y227874D01*
X25157Y229055D01*
X25157Y232007D02*
X25157Y227874D01*
X30787Y228464D02*
X29704Y227874D01*
X27539Y227874D01*
X26456Y229055D01*
X26456Y230826D01*
X27539Y232007D01*
X29704Y232007D01*
X30787Y231417D01*
X30787Y230826D01*
X29704Y230236D01*
X26456Y230236D01*
X32086Y227874D02*
X36417Y227874D01*
X33169Y234960D02*
X34251Y234960D01*
X34251Y227874D01*
X37716Y227874D02*
X42047Y227874D01*
X38799Y234960D02*
X39881Y234960D01*
X39881Y227874D01*
X47677Y228464D02*
X46594Y227874D01*
X44429Y227874D01*
X43346Y229055D01*
X43346Y230826D01*
X44429Y232007D01*
X46594Y232007D01*
X47677Y231417D01*
X47677Y230826D01*
X46594Y230236D01*
X43346Y230236D01*
X48976Y227874D02*
X52765Y227874D01*
X53307Y229055D01*
X52765Y230236D01*
X49517Y230236D01*
X48976Y231417D01*
X49517Y232007D01*
X53307Y232007D01*
X60236Y234960D02*
X60236Y227874D01*
X60236Y231417D02*
X62942Y231417D01*
X64025Y232007D01*
X64566Y233188D01*
X64025Y234370D01*
X62942Y234960D01*
X60236Y234960D01*
X65866Y232007D02*
X65866Y227874D01*
X65866Y230236D02*
X67490Y232007D01*
X70196Y232007D01*
X71496Y230826D02*
X71496Y229055D01*
X71496Y230826D02*
X72578Y232007D01*
X74744Y232007D01*
X75826Y230826D01*
X75826Y229055D01*
X74744Y227874D01*
X72578Y227874D01*
X71496Y229055D01*
X77125Y225511D02*
X80374Y225511D01*
X81456Y226692D01*
X81456Y232007D01*
X79832Y232007D01*
X81456Y234960D02*
X81456Y234370D01*
X87086Y228464D02*
X86003Y227874D01*
X83838Y227874D01*
X82755Y229055D01*
X82755Y230826D01*
X83838Y232007D01*
X86003Y232007D01*
X87086Y231417D01*
X87086Y230826D01*
X86003Y230236D01*
X82755Y230236D01*
X88385Y234960D02*
X88385Y227874D01*
X88385Y230236D02*
X91633Y233779D01*
X90009Y232007D02*
X92716Y227874D01*
X94015Y234960D02*
X94015Y229055D01*
X95098Y227874D01*
X98346Y227874D01*
X94015Y232007D02*
X96181Y232007D01*
X105275Y232007D02*
X107440Y227874D01*
X109606Y232007D01*
X110905Y230826D02*
X110905Y229055D01*
X110905Y230826D02*
X111988Y232007D01*
X114153Y232007D01*
X115236Y230826D01*
X115236Y229055D01*
X114153Y227874D01*
X111988Y227874D01*
X110905Y229055D01*
X116535Y227874D02*
X116535Y232007D01*
X116535Y230826D02*
X117618Y232007D01*
X119783Y232007D01*
X120866Y230826D01*
X120866Y227874D01*
X127795Y234960D02*
X132125Y234960D01*
X129960Y234960D02*
X129960Y227874D01*
X133425Y227874D02*
X133425Y232598D01*
X133425Y230236D02*
X137755Y230236D01*
X137755Y232598D02*
X137755Y227874D01*
X133425Y232598D02*
X135590Y234960D01*
X137755Y232598D01*
X139055Y234960D02*
X139055Y227874D01*
X139055Y231417D02*
X141761Y231417D01*
X142844Y232007D01*
X143385Y233188D01*
X142844Y234370D01*
X141761Y234960D01*
X139055Y234960D01*
X141220Y231417D02*
X143385Y227874D01*
X146309Y234960D02*
X145226Y234370D01*
X144685Y233188D01*
X144685Y229645D01*
X145226Y228464D01*
X146309Y227874D01*
X147391Y227874D01*
X148474Y228464D01*
X149015Y229645D01*
X149015Y231417D01*
X147933Y231417D01*
X146309Y234960D02*
X147391Y234960D01*
X148474Y234370D01*
X150314Y234960D02*
X150314Y227874D01*
X154645Y227874D01*
X150314Y231417D02*
X152480Y231417D01*
X150314Y234960D02*
X154645Y234960D01*
X155944Y234960D02*
X160275Y234960D01*
X158110Y234960D02*
X158110Y227874D01*
X167204Y227874D02*
X167204Y234960D01*
X171535Y227874D01*
X171535Y234960D01*
X175541Y227874D02*
X176624Y228464D01*
X177165Y229645D01*
X175541Y227874D02*
X174458Y227874D01*
X173375Y228464D01*
X172834Y229645D01*
X172834Y233188D01*
X173375Y234370D01*
X174458Y234960D01*
X175541Y234960D01*
X176624Y234370D01*
X177165Y233188D01*
X178464Y231417D02*
X182795Y231417D01*
X184094Y234960D02*
X184094Y227874D01*
X188425Y227874D01*
X184094Y231417D02*
X186259Y231417D01*
X184094Y234960D02*
X188425Y234960D01*
X194055Y234960D02*
X194055Y227874D01*
X190807Y227874D01*
X189724Y229055D01*
X189724Y230826D01*
X190807Y232007D01*
X194055Y232007D01*
X195354Y227874D02*
X199685Y227874D01*
X197519Y227874D02*
X197519Y232007D01*
X197519Y234960D02*
X197519Y234370D01*
X195895Y232007D02*
X197519Y232007D01*
X200984Y234960D02*
X200984Y229055D01*
X202066Y227874D01*
X205314Y227874D01*
X200984Y232007D02*
X203149Y232007D01*
X206614Y227874D02*
X210944Y227874D01*
X208779Y227874D02*
X208779Y232007D01*
X208779Y234960D02*
X208779Y234370D01*
X207155Y232007D02*
X208779Y232007D01*
X212244Y230826D02*
X212244Y229055D01*
X212244Y230826D02*
X213326Y232007D01*
X215492Y232007D01*
X216574Y230826D01*
X216574Y229055D01*
X215492Y227874D01*
X213326Y227874D01*
X212244Y229055D01*
X217874Y227874D02*
X217874Y232007D01*
X217874Y230826D02*
X218956Y232007D01*
X221122Y232007D01*
X222204Y230826D01*
X222204Y227874D01*
X224586Y228464D02*
X224586Y227874D01*
X225127Y227874D01*
X225127Y228464D01*
X224586Y228464D01*
X225127Y231417D02*
X224586Y231417D01*
X224586Y230826D01*
X225127Y230826D01*
X225127Y231417D01*
X234763Y234960D02*
X234763Y227874D01*
X234763Y230236D02*
X239094Y234960D01*
X236387Y232007D02*
X239094Y227874D01*
X240393Y230826D02*
X240393Y229055D01*
X240393Y230826D02*
X241476Y232007D01*
X243641Y232007D01*
X244724Y230826D01*
X244724Y229055D01*
X243641Y227874D01*
X241476Y227874D01*
X240393Y229055D01*
X250354Y227874D02*
X250354Y230826D01*
X249271Y232007D01*
X248188Y227874D02*
X248188Y230826D01*
X246023Y232007D02*
X249271Y232007D01*
X246023Y227874D02*
X246023Y232007D01*
X248188Y230826D02*
X247106Y232007D01*
X255984Y227874D02*
X255984Y230826D01*
X254901Y232007D01*
X253818Y227874D02*
X253818Y230826D01*
X251653Y232007D02*
X254901Y232007D01*
X251653Y227874D02*
X251653Y232007D01*
X253818Y230826D02*
X252736Y232007D01*
X261614Y228464D02*
X260531Y227874D01*
X258366Y227874D01*
X257283Y229055D01*
X257283Y230826D01*
X258366Y232007D01*
X260531Y232007D01*
X261614Y231417D01*
X261614Y230826D01*
X260531Y230236D01*
X257283Y230236D01*
X262913Y232007D02*
X262913Y227874D01*
X262913Y230236D02*
X264537Y232007D01*
X267244Y232007D01*
X268543Y232007D02*
X272874Y232007D01*
X268543Y227874D01*
X272874Y227874D01*
X274173Y227874D02*
X278503Y227874D01*
X276338Y227874D02*
X276338Y232007D01*
X276338Y234960D02*
X276338Y234370D01*
X274714Y232007D02*
X276338Y232007D01*
X284133Y228464D02*
X283051Y227874D01*
X280885Y227874D01*
X279803Y229055D01*
X279803Y230826D01*
X280885Y232007D01*
X283051Y232007D01*
X284133Y231417D01*
X284133Y230826D01*
X283051Y230236D01*
X279803Y230236D01*
X285433Y227874D02*
X289763Y227874D01*
X286515Y234960D02*
X287598Y234960D01*
X287598Y227874D01*
X291062Y227874D02*
X295393Y227874D01*
X292145Y234960D02*
X293228Y234960D01*
X293228Y227874D01*
X301023Y228464D02*
X299940Y227874D01*
X297775Y227874D01*
X296692Y229055D01*
X296692Y230826D01*
X297775Y232007D01*
X299940Y232007D01*
X301023Y231417D01*
X301023Y230826D01*
X299940Y230236D01*
X296692Y230236D01*
X307952Y227874D02*
X307952Y234960D01*
X312283Y227874D01*
X312283Y234960D01*
X313582Y232007D02*
X313582Y229055D01*
X314665Y227874D01*
X316830Y227874D01*
X317913Y229055D01*
X317913Y232007D02*
X317913Y227874D01*
X319212Y234960D02*
X319212Y229055D01*
X320295Y227874D01*
X323543Y227874D01*
X319212Y232007D02*
X321377Y232007D01*
X324842Y232007D02*
X329173Y232007D01*
X324842Y227874D01*
X329173Y227874D01*
X330472Y232007D02*
X330472Y229055D01*
X331555Y227874D01*
X333720Y227874D01*
X334803Y229055D01*
X334803Y232007D02*
X334803Y227874D01*
X336102Y227874D02*
X336102Y232007D01*
X336102Y230826D02*
X337185Y232007D01*
X339350Y232007D01*
X340433Y230826D01*
X340433Y227874D01*
X346062Y229055D02*
X344980Y227874D01*
X342814Y227874D01*
X341732Y229055D01*
X341732Y230826D01*
X342814Y232007D01*
X344980Y232007D01*
X346062Y230826D01*
X346062Y226692D01*
X344980Y225511D01*
X341732Y225511D01*
X352992Y227874D02*
X357322Y227874D01*
X355157Y227874D02*
X355157Y232007D01*
X355157Y234960D02*
X355157Y234370D01*
X353533Y232007D02*
X355157Y232007D01*
X358622Y227874D02*
X362411Y227874D01*
X362952Y229055D01*
X362411Y230236D01*
X359163Y230236D01*
X358622Y231417D01*
X359163Y232007D01*
X362952Y232007D01*
X364251Y234960D02*
X364251Y229055D01*
X365334Y227874D01*
X368582Y227874D01*
X364251Y232007D02*
X366417Y232007D01*
X375511Y227874D02*
X379301Y227874D01*
X379842Y229055D01*
X379301Y230236D01*
X376053Y230236D01*
X375511Y231417D01*
X376053Y232007D01*
X379842Y232007D01*
X381141Y234960D02*
X381141Y229055D01*
X382224Y227874D01*
X385472Y227874D01*
X381141Y232007D02*
X383307Y232007D01*
X386771Y232007D02*
X386771Y227874D01*
X386771Y230236D02*
X388395Y232007D01*
X391102Y232007D01*
X392401Y229055D02*
X393484Y227874D01*
X395649Y227874D01*
X396732Y229055D01*
X392401Y229055D02*
X392401Y230826D01*
X393484Y232007D01*
X395649Y232007D01*
X396732Y230826D01*
X396732Y227874D01*
X398031Y225511D02*
X398031Y233779D01*
X399114Y234960D01*
X402362Y234960D01*
X398031Y230236D02*
X400196Y230236D01*
X403661Y234960D02*
X403661Y227874D01*
X406909Y227874D01*
X407992Y229055D01*
X407992Y230826D01*
X406909Y232007D01*
X403661Y232007D01*
X409291Y229055D02*
X410374Y227874D01*
X412539Y227874D01*
X413622Y229055D01*
X409291Y229055D02*
X409291Y230826D01*
X410374Y232007D01*
X412539Y232007D01*
X413622Y230826D01*
X413622Y227874D01*
X414921Y232007D02*
X414921Y227874D01*
X414921Y230236D02*
X416545Y232007D01*
X419251Y232007D01*
X422716Y227874D02*
X422716Y228464D01*
X423257Y228464D01*
X423257Y227874D01*
X422716Y227874D01*
X422716Y230236D02*
X423257Y230236D01*
X423799Y233779D01*
X423257Y234960D01*
X422716Y234960D01*
X422175Y233779D01*
X422716Y230236D01*
X3937Y227874D02*
X3937Y232598D01*
X3937Y230236D02*
X8267Y230236D01*
X8267Y232598D02*
X8267Y227874D01*
X3937Y232598D02*
X6102Y234960D01*
X8267Y232598D01*
X9566Y234960D02*
X9566Y227874D01*
X9566Y230236D02*
X12814Y233779D01*
X11190Y232007D02*
X13897Y227874D01*
X15196Y234960D02*
X15196Y229055D01*
X16279Y227874D01*
X19527Y227874D01*
X15196Y232007D02*
X17362Y232007D01*
X20826Y232007D02*
X20826Y229055D01*
X21909Y227874D01*
X24074Y227874D01*
X25157Y229055D01*
X25157Y232007D02*
X25157Y227874D01*
X30787Y228464D02*
X29704Y227874D01*
X27539Y227874D01*
X26456Y229055D01*
X26456Y230826D01*
X27539Y232007D01*
X29704Y232007D01*
X30787Y231417D01*
X30787Y230826D01*
X29704Y230236D01*
X26456Y230236D01*
X32086Y227874D02*
X36417Y227874D01*
X33169Y234960D02*
X34251Y234960D01*
X34251Y227874D01*
X37716Y227874D02*
X42047Y227874D01*
X38799Y234960D02*
X39881Y234960D01*
X39881Y227874D01*
X47677Y228464D02*
X46594Y227874D01*
X44429Y227874D01*
X43346Y229055D01*
X43346Y230826D01*
X44429Y232007D01*
X46594Y232007D01*
X47677Y231417D01*
X47677Y230826D01*
X46594Y230236D01*
X43346Y230236D01*
X48976Y227874D02*
X52765Y227874D01*
X53307Y229055D01*
X52765Y230236D01*
X49517Y230236D01*
X48976Y231417D01*
X49517Y232007D01*
X53307Y232007D01*
X60236Y234960D02*
X60236Y227874D01*
X60236Y231417D02*
X62942Y231417D01*
X64025Y232007D01*
X64566Y233188D01*
X64025Y234370D01*
X62942Y234960D01*
X60236Y234960D01*
X65866Y232007D02*
X65866Y227874D01*
X65866Y230236D02*
X67490Y232007D01*
X70196Y232007D01*
X71496Y230826D02*
X71496Y229055D01*
X71496Y230826D02*
X72578Y232007D01*
X74744Y232007D01*
X75826Y230826D01*
X75826Y229055D01*
X74744Y227874D01*
X72578Y227874D01*
X71496Y229055D01*
X77125Y225511D02*
X80374Y225511D01*
X81456Y226692D01*
X81456Y232007D01*
X79832Y232007D01*
X81456Y234960D02*
X81456Y234370D01*
X87086Y228464D02*
X86003Y227874D01*
X83838Y227874D01*
X82755Y229055D01*
X82755Y230826D01*
X83838Y232007D01*
X86003Y232007D01*
X87086Y231417D01*
X87086Y230826D01*
X86003Y230236D01*
X82755Y230236D01*
X88385Y234960D02*
X88385Y227874D01*
X88385Y230236D02*
X91633Y233779D01*
X90009Y232007D02*
X92716Y227874D01*
X94015Y234960D02*
X94015Y229055D01*
X95098Y227874D01*
X98346Y227874D01*
X94015Y232007D02*
X96181Y232007D01*
X105275Y232007D02*
X107440Y227874D01*
X109606Y232007D01*
X110905Y230826D02*
X110905Y229055D01*
X110905Y230826D02*
X111988Y232007D01*
X114153Y232007D01*
X115236Y230826D01*
X115236Y229055D01*
X114153Y227874D01*
X111988Y227874D01*
X110905Y229055D01*
X116535Y227874D02*
X116535Y232007D01*
X116535Y230826D02*
X117618Y232007D01*
X119783Y232007D01*
X120866Y230826D01*
X120866Y227874D01*
X127795Y234960D02*
X132125Y234960D01*
X129960Y234960D02*
X129960Y227874D01*
X133425Y227874D02*
X133425Y232598D01*
X133425Y230236D02*
X137755Y230236D01*
X137755Y232598D02*
X137755Y227874D01*
X133425Y232598D02*
X135590Y234960D01*
X137755Y232598D01*
X139055Y234960D02*
X139055Y227874D01*
X139055Y231417D02*
X141761Y231417D01*
X142844Y232007D01*
X143385Y233188D01*
X142844Y234370D01*
X141761Y234960D01*
X139055Y234960D01*
X141220Y231417D02*
X143385Y227874D01*
X146309Y234960D02*
X145226Y234370D01*
X144685Y233188D01*
X144685Y229645D01*
X145226Y228464D01*
X146309Y227874D01*
X147391Y227874D01*
X148474Y228464D01*
X149015Y229645D01*
X149015Y231417D01*
X147933Y231417D01*
X146309Y234960D02*
X147391Y234960D01*
X148474Y234370D01*
X150314Y234960D02*
X150314Y227874D01*
X154645Y227874D01*
X150314Y231417D02*
X152480Y231417D01*
X150314Y234960D02*
X154645Y234960D01*
X155944Y234960D02*
X160275Y234960D01*
X158110Y234960D02*
X158110Y227874D01*
X167204Y227874D02*
X167204Y234960D01*
X171535Y227874D01*
X171535Y234960D01*
X175541Y227874D02*
X176624Y228464D01*
X177165Y229645D01*
X175541Y227874D02*
X174458Y227874D01*
X173375Y228464D01*
X172834Y229645D01*
X172834Y233188D01*
X173375Y234370D01*
X174458Y234960D01*
X175541Y234960D01*
X176624Y234370D01*
X177165Y233188D01*
X178464Y231417D02*
X182795Y231417D01*
X184094Y234960D02*
X184094Y227874D01*
X188425Y227874D01*
X184094Y231417D02*
X186259Y231417D01*
X184094Y234960D02*
X188425Y234960D01*
X194055Y234960D02*
X194055Y227874D01*
X190807Y227874D01*
X189724Y229055D01*
X189724Y230826D01*
X190807Y232007D01*
X194055Y232007D01*
X195354Y227874D02*
X199685Y227874D01*
X197519Y227874D02*
X197519Y232007D01*
X197519Y234960D02*
X197519Y234370D01*
X195895Y232007D02*
X197519Y232007D01*
X200984Y234960D02*
X200984Y229055D01*
X202066Y227874D01*
X205314Y227874D01*
X200984Y232007D02*
X203149Y232007D01*
X206614Y227874D02*
X210944Y227874D01*
X208779Y227874D02*
X208779Y232007D01*
X208779Y234960D02*
X208779Y234370D01*
X207155Y232007D02*
X208779Y232007D01*
X212244Y230826D02*
X212244Y229055D01*
X212244Y230826D02*
X213326Y232007D01*
X215492Y232007D01*
X216574Y230826D01*
X216574Y229055D01*
X215492Y227874D01*
X213326Y227874D01*
X212244Y229055D01*
X217874Y227874D02*
X217874Y232007D01*
X217874Y230826D02*
X218956Y232007D01*
X221122Y232007D01*
X222204Y230826D01*
X222204Y227874D01*
X224586Y228464D02*
X224586Y227874D01*
X225127Y227874D01*
X225127Y228464D01*
X224586Y228464D01*
X225127Y231417D02*
X224586Y231417D01*
X224586Y230826D01*
X225127Y230826D01*
X225127Y231417D01*
X234763Y234960D02*
X234763Y227874D01*
X234763Y230236D02*
X239094Y234960D01*
X236387Y232007D02*
X239094Y227874D01*
X240393Y230826D02*
X240393Y229055D01*
X240393Y230826D02*
X241476Y232007D01*
X243641Y232007D01*
X244724Y230826D01*
X244724Y229055D01*
X243641Y227874D01*
X241476Y227874D01*
X240393Y229055D01*
X250354Y227874D02*
X250354Y230826D01*
X249271Y232007D01*
X248188Y227874D02*
X248188Y230826D01*
X246023Y232007D02*
X249271Y232007D01*
X246023Y227874D02*
X246023Y232007D01*
X248188Y230826D02*
X247106Y232007D01*
X255984Y227874D02*
X255984Y230826D01*
X254901Y232007D01*
X253818Y227874D02*
X253818Y230826D01*
X251653Y232007D02*
X254901Y232007D01*
X251653Y227874D02*
X251653Y232007D01*
X253818Y230826D02*
X252736Y232007D01*
X261614Y228464D02*
X260531Y227874D01*
X258366Y227874D01*
X257283Y229055D01*
X257283Y230826D01*
X258366Y232007D01*
X260531Y232007D01*
X261614Y231417D01*
X261614Y230826D01*
X260531Y230236D01*
X257283Y230236D01*
X262913Y232007D02*
X262913Y227874D01*
X262913Y230236D02*
X264537Y232007D01*
X267244Y232007D01*
X268543Y232007D02*
X272874Y232007D01*
X268543Y227874D01*
X272874Y227874D01*
X274173Y227874D02*
X278503Y227874D01*
X276338Y227874D02*
X276338Y232007D01*
X276338Y234960D02*
X276338Y234370D01*
X274714Y232007D02*
X276338Y232007D01*
X284133Y228464D02*
X283051Y227874D01*
X280885Y227874D01*
X279803Y229055D01*
X279803Y230826D01*
X280885Y232007D01*
X283051Y232007D01*
X284133Y231417D01*
X284133Y230826D01*
X283051Y230236D01*
X279803Y230236D01*
X285433Y227874D02*
X289763Y227874D01*
X286515Y234960D02*
X287598Y234960D01*
X287598Y227874D01*
X291062Y227874D02*
X295393Y227874D01*
X292145Y234960D02*
X293228Y234960D01*
X293228Y227874D01*
X301023Y228464D02*
X299940Y227874D01*
X297775Y227874D01*
X296692Y229055D01*
X296692Y230826D01*
X297775Y232007D01*
X299940Y232007D01*
X301023Y231417D01*
X301023Y230826D01*
X299940Y230236D01*
X296692Y230236D01*
X307952Y227874D02*
X307952Y234960D01*
X312283Y227874D01*
X312283Y234960D01*
X313582Y232007D02*
X313582Y229055D01*
X314665Y227874D01*
X316830Y227874D01*
X317913Y229055D01*
X317913Y232007D02*
X317913Y227874D01*
X319212Y234960D02*
X319212Y229055D01*
X320295Y227874D01*
X323543Y227874D01*
X319212Y232007D02*
X321377Y232007D01*
X324842Y232007D02*
X329173Y232007D01*
X324842Y227874D01*
X329173Y227874D01*
X330472Y232007D02*
X330472Y229055D01*
X331555Y227874D01*
X333720Y227874D01*
X334803Y229055D01*
X334803Y232007D02*
X334803Y227874D01*
X336102Y227874D02*
X336102Y232007D01*
X336102Y230826D02*
X337185Y232007D01*
X339350Y232007D01*
X340433Y230826D01*
X340433Y227874D01*
X346062Y229055D02*
X344980Y227874D01*
X342814Y227874D01*
X341732Y229055D01*
X341732Y230826D01*
X342814Y232007D01*
X344980Y232007D01*
X346062Y230826D01*
X346062Y226692D01*
X344980Y225511D01*
X341732Y225511D01*
X352992Y227874D02*
X357322Y227874D01*
X355157Y227874D02*
X355157Y232007D01*
X355157Y234960D02*
X355157Y234370D01*
X353533Y232007D02*
X355157Y232007D01*
X358622Y227874D02*
X362411Y227874D01*
X362952Y229055D01*
X362411Y230236D01*
X359163Y230236D01*
X358622Y231417D01*
X359163Y232007D01*
X362952Y232007D01*
X364251Y234960D02*
X364251Y229055D01*
X365334Y227874D01*
X368582Y227874D01*
X364251Y232007D02*
X366417Y232007D01*
X375511Y227874D02*
X379301Y227874D01*
X379842Y229055D01*
X379301Y230236D01*
X376053Y230236D01*
X375511Y231417D01*
X376053Y232007D01*
X379842Y232007D01*
X381141Y234960D02*
X381141Y229055D01*
X382224Y227874D01*
X385472Y227874D01*
X381141Y232007D02*
X383307Y232007D01*
X386771Y232007D02*
X386771Y227874D01*
X386771Y230236D02*
X388395Y232007D01*
X391102Y232007D01*
X392401Y229055D02*
X393484Y227874D01*
X395649Y227874D01*
X396732Y229055D01*
X392401Y229055D02*
X392401Y230826D01*
X393484Y232007D01*
X395649Y232007D01*
X396732Y230826D01*
X396732Y227874D01*
X398031Y225511D02*
X398031Y233779D01*
X399114Y234960D01*
X402362Y234960D01*
X398031Y230236D02*
X400196Y230236D01*
X403661Y234960D02*
X403661Y227874D01*
X406909Y227874D01*
X407992Y229055D01*
X407992Y230826D01*
X406909Y232007D01*
X403661Y232007D01*
X409291Y229055D02*
X410374Y227874D01*
X412539Y227874D01*
X413622Y229055D01*
X409291Y229055D02*
X409291Y230826D01*
X410374Y232007D01*
X412539Y232007D01*
X413622Y230826D01*
X413622Y227874D01*
X414921Y232007D02*
X414921Y227874D01*
X414921Y230236D02*
X416545Y232007D01*
X419251Y232007D01*
X422716Y227874D02*
X422716Y228464D01*
X423257Y228464D01*
X423257Y227874D01*
X422716Y227874D01*
X422716Y230236D02*
X423257Y230236D01*
X423799Y233779D01*
X423257Y234960D01*
X422716Y234960D01*
X422175Y233779D01*
X422716Y230236D01*
G54D15*
X127500Y45000D02*
X115000Y45000D01*
X110216Y40216D01*
X110216Y15649D01*
X100216Y15649D01*
X77500Y65000D02*
X120000Y65000D01*
X127500Y57500D01*
X127500Y45000D01*
X167500Y204606D02*
X167500Y82500D01*
X167500Y204606D02*
X168523Y205629D01*
X167500Y82500D02*
X150000Y65000D01*
X120000Y65000D01*
X77500Y65000D02*
X52500Y65000D01*
X42500Y75000D01*
X25000Y75000D01*
X60000Y45000D02*
X25000Y45000D01*
X60000Y45000D02*
X70000Y55000D01*
X77500Y55000D01*
X60000Y45000D02*
X80000Y25000D01*
X80000Y12500D01*
X87500Y5000D01*
X117500Y5000D01*
X120216Y7716D01*
X120216Y15649D01*
X128523Y188523D02*
X128523Y205629D01*
X62500Y122500D02*
X128523Y188523D01*
X62500Y77500D02*
X62500Y122500D01*
X62500Y77500D02*
X65000Y75000D01*
X77500Y75000D01*
X150000Y45000D02*
X210000Y105000D01*
X210000Y205000D01*
X200000Y215000D01*
X120000Y215000D01*
X117500Y212500D01*
X117500Y206653D01*
X118523Y205629D01*
X150000Y85000D02*
X127500Y85000D01*
X77500Y85000D01*
X10000Y65000D02*
X25000Y65000D01*
X5000Y60000D02*
X10000Y65000D01*
X5000Y22500D02*
X5000Y60000D01*
X5000Y22500D02*
X12500Y15000D01*
X13228Y15728D02*
X22165Y15728D01*
X13228Y15728D02*
X12500Y15000D01*
X15000Y55000D02*
X25000Y55000D01*
X12500Y52500D02*
X15000Y55000D01*
X12500Y52500D02*
X12500Y35000D01*
X20000Y27500D01*
X30000Y27500D01*
X32165Y25334D01*
X32165Y15728D01*
G54D17*
X127500Y45000D03*
X127500Y85000D03*
G54D18*
X150000Y85000D03*
X150000Y45000D03*
G54D19*
X32362Y205629D03*
X42362Y205629D03*
X52362Y205629D03*
X62362Y205629D03*
X72362Y205629D03*
X82362Y205629D03*
X92362Y205629D03*
X118523Y205629D03*
X128523Y205629D03*
X138523Y205629D03*
X148523Y205629D03*
X158523Y205629D03*
X168523Y205629D03*
X178523Y205629D03*
X188523Y205629D03*
X198523Y205629D03*
G54D20*
X25000Y55000D03*
X25000Y65000D03*
X25000Y75000D03*
X77500Y55000D03*
X77500Y65000D03*
X77500Y75000D03*
X77500Y85000D03*
X77500Y95000D03*
G54D21*
X150216Y15649D03*
X140216Y15649D03*
X130216Y15649D03*
X120216Y15649D03*
X110216Y15649D03*
X100216Y15649D03*
X90216Y15649D03*
X62165Y15728D03*
X52165Y15728D03*
X42165Y15728D03*
X32165Y15728D03*
X22165Y15728D03*
G54D22*
X22362Y205629D03*
X108523Y205629D03*
G54D23*
X25000Y45000D03*
X77500Y45000D03*
G54D24*
X160216Y15649D03*
X72165Y15728D03*
M02*
